<svg width="15" height="15" viewBox="0 0 15 15" fill="none" xmlns="http://www.w3.org/2000/svg">
<path d="M3.49414 3.63965C3.60685 3.52694 3.98793 3.23174 3.98793 3.23174C4.05338 3.17816 4.1289 3.13823 4.21003 3.11431C4.29116 3.09039 4.37626 3.08296 4.46031 3.09247C4.54436 3.10197 4.62565 3.12822 4.69939 3.16965C4.77313 3.21109 4.83782 3.26687 4.88965 3.33372L5.75916 4.43939C5.85656 4.56576 5.90573 4.7227 5.89786 4.88205C5.88999 5.04141 5.82559 5.19274 5.71622 5.3089L5.30293 5.74365C5.24505 5.80147 5.20513 5.8748 5.18799 5.9548C5.17084 6.0348 5.17721 6.11805 5.20632 6.19451C5.3847 6.67277 5.6484 7.11468 5.98459 7.49877C6.40091 7.89155 6.85792 8.23881 7.34789 8.53467C7.46219 8.60023 7.59472 8.62679 7.72546 8.61033C7.85619 8.59387 7.97801 8.53528 8.07248 8.44342L8.45893 8.07308C8.55631 7.96732 8.68837 7.89996 8.83115 7.88322C8.97394 7.86648 9.11799 7.90147 9.23719 7.98183L10.3804 8.74399C10.4595 8.79709 10.5269 8.86569 10.5786 8.94563C10.6304 9.02557 10.6653 9.11518 10.6814 9.20904C10.6974 9.30289 10.6943 9.39903 10.6721 9.49162C10.6499 9.58421 10.6091 9.67133 10.5522 9.74769L10.3482 10.0268C10.1473 10.2957 9.85897 10.4863 9.53277 10.5656C9.20656 10.645 8.86291 10.6082 8.56091 10.4615C7.42284 9.95722 6.38054 9.25993 5.48006 8.40049C4.77264 7.59018 4.15369 6.70673 3.63369 5.76512L3.2043 4.84194C3.13133 4.68357 3.10469 4.50777 3.12749 4.33489C3.15029 4.16201 3.22158 3.99912 3.33312 3.86508C3.38043 3.78559 3.43429 3.71019 3.49414 3.63965ZM9.93495 6.57559C9.93495 6.50045 9.93495 6.43067 9.93495 6.35553C9.93498 5.6484 9.65593 4.96983 9.15843 4.46731C8.66093 3.96479 7.98521 3.67893 7.27811 3.67186H7.16003C7.12349 3.67457 7.08933 3.69103 7.06443 3.71792C7.03953 3.74481 7.02575 3.78013 7.02585 3.81678C7.02652 3.83559 7.03098 3.85407 7.03898 3.8711C7.04697 3.88814 7.05833 3.90339 7.07237 3.91593C7.08641 3.92846 7.10284 3.93803 7.12067 3.94405C7.1385 3.95007 7.15737 3.95242 7.17614 3.95096H7.27811C7.90829 3.95238 8.51225 4.20334 8.95786 4.64895C9.40346 5.09455 9.65443 5.69851 9.65585 6.32869C9.65585 6.3931 9.65585 6.46288 9.65585 6.52728C9.65438 6.54562 9.65656 6.56407 9.66225 6.58156C9.66794 6.59905 9.67703 6.61525 9.689 6.62922C9.70097 6.64318 9.71559 6.65464 9.732 6.66294C9.74842 6.67124 9.76632 6.67621 9.78466 6.67757C9.816 6.67872 9.84681 6.66929 9.87213 6.65078C9.89744 6.63228 9.91579 6.60579 9.92421 6.57559H9.93495ZM8.92052 6.25892C8.9257 6.1982 8.9257 6.13715 8.92052 6.07643C8.91911 5.69821 8.76823 5.33589 8.50079 5.06844C8.23335 4.801 7.87103 4.65013 7.49281 4.64871H7.40156C7.36459 4.65401 7.33091 4.67289 7.3071 4.70166C7.28328 4.73044 7.27104 4.76705 7.27275 4.80437C7.27474 4.82274 7.28037 4.84054 7.2893 4.85672C7.29823 4.8729 7.31028 4.88715 7.32477 4.89863C7.33925 4.91012 7.35586 4.91861 7.37366 4.92362C7.39145 4.92863 7.41005 4.93006 7.4284 4.92782H7.49281C7.64339 4.92781 7.7925 4.95756 7.93155 5.01535C8.07061 5.07314 8.19688 5.15783 8.30311 5.26456C8.40934 5.37129 8.49344 5.49795 8.55057 5.63728C8.60771 5.7766 8.63676 5.92584 8.63605 6.07643C8.63873 6.1247 8.63873 6.17308 8.63605 6.22135C8.63301 6.2397 8.63366 6.25847 8.63798 6.27657C8.64229 6.29467 8.65018 6.31172 8.66118 6.32672C8.67219 6.34172 8.68608 6.35437 8.70204 6.36393C8.718 6.37349 8.73571 6.37975 8.75413 6.38237C8.77248 6.38461 8.79109 6.38318 8.80888 6.37817C8.82667 6.37316 8.84329 6.36467 8.85777 6.35318C8.87225 6.3417 8.8843 6.32745 8.89323 6.31127C8.90216 6.29509 8.90779 6.27729 8.90979 6.25892H8.92052ZM10.8474 6.87616C10.8474 6.74198 10.8474 6.60243 10.8474 6.46824C10.8433 5.46907 10.4475 4.51135 9.74498 3.80082C9.04248 3.09028 8.08932 2.68362 7.09026 2.66816H6.87556C6.85746 2.66883 6.83967 2.67316 6.82328 2.68088C6.8069 2.68861 6.79224 2.69957 6.7802 2.71311C6.76817 2.72665 6.759 2.74249 6.75325 2.75967C6.7475 2.77686 6.74529 2.79502 6.74675 2.81308C6.74946 2.84963 6.76592 2.88379 6.79281 2.90868C6.8197 2.93358 6.85502 2.94737 6.89167 2.94727H7.09026C8.026 2.94727 8.92349 3.31862 9.58566 3.97978C10.2478 4.64095 10.6205 5.53787 10.622 6.47361C10.622 6.59706 10.622 6.72587 10.622 6.85469C10.6197 6.87274 10.6212 6.89106 10.6263 6.90853C10.6313 6.926 10.6399 6.94226 10.6515 6.95632C10.663 6.97037 10.6773 6.98194 10.6934 6.9903C10.7096 6.99866 10.7273 7.00366 10.7454 7.00498C10.7735 6.99635 10.7982 6.97942 10.8164 6.95642C10.8346 6.93342 10.8454 6.90543 10.8474 6.87616ZM8.89368 6.25892C8.89886 6.1982 8.89886 6.13715 8.89368 6.07643C8.89227 5.69821 8.7414 5.33589 8.47395 5.06844C8.20651 4.801 7.84419 4.65013 7.46597 4.64871H7.37473C7.33775 4.65401 7.30407 4.67289 7.28026 4.70166C7.25644 4.73044 7.2442 4.76705 7.24591 4.80437C7.24791 4.82274 7.25353 4.84054 7.26246 4.85672C7.27139 4.8729 7.28345 4.88715 7.29793 4.89863C7.31241 4.91012 7.32903 4.91861 7.34682 4.92362C7.36461 4.92863 7.38322 4.93006 7.40156 4.92782H7.46597C7.61656 4.92781 7.76566 4.95756 7.90471 5.01535C8.04377 5.07314 8.17004 5.15783 8.27627 5.26456C8.3825 5.37129 8.4666 5.49795 8.52374 5.63728C8.58087 5.7766 8.60992 5.92584 8.60922 6.07643C8.61189 6.1247 8.61189 6.17308 8.60922 6.22135C8.60617 6.2397 8.60682 6.25847 8.61114 6.27657C8.61545 6.29467 8.62335 6.31172 8.63435 6.32672C8.64535 6.34172 8.65924 6.35437 8.6752 6.36393C8.69116 6.37349 8.70888 6.37975 8.7273 6.38237C8.7475 6.38895 8.76895 6.39083 8.78999 6.38787C8.81104 6.38491 8.83113 6.37718 8.84873 6.36527C8.86634 6.35336 8.88099 6.33759 8.89157 6.31916C8.90215 6.30073 8.90838 6.28012 8.90979 6.25892H8.89368ZM14.1698 5.26059L14.1161 8.40049C14.1161 11.2452 11.529 13.1559 8.68436 13.1559H5.91481L4.4871 14.7984C4.40399 14.8896 4.29544 14.9539 4.17546 14.9828C4.05548 15.0117 3.92957 15.004 3.81401 14.9607C3.69844 14.9174 3.59852 14.8404 3.52715 14.7397C3.45578 14.639 3.41624 14.5192 3.41363 14.3958V12.7856C2.4217 12.4219 1.5639 11.765 0.954179 10.9022C0.344454 10.0393 0.0116597 9.01144 0 7.955V5.35184C0 2.37296 1.72292 0.199188 5.33514 0.0166984C6.09193 -0.020873 8.37305 0.0166984 8.37305 0.0166984C12.1409 -0.0155057 14.1859 2.15827 14.1859 5.26059H14.1698ZM13.1285 5.49675C13.0963 2.60376 11.3841 1.05796 8.16373 1.05796C8.16373 1.05796 6.23148 1.05796 5.5874 1.05796C2.50655 1.20825 1.09494 3.06535 1.09494 5.53433V7.72957C1.06179 8.61461 1.31347 9.48693 1.81296 10.2183C2.31246 10.9497 3.03342 11.5015 3.86985 11.7926V14.4065C3.86865 14.4314 3.8753 14.4559 3.88887 14.4767C3.90243 14.4976 3.92222 14.5136 3.94541 14.5225C3.9686 14.5314 3.99401 14.5328 4.01803 14.5264C4.04204 14.5201 4.06344 14.5063 4.07918 14.4871L5.24926 13.1345L6.21538 12.0181H8.47503C11.0889 12.0181 13.107 10.4079 13.107 8.07308L13.1285 5.49675Z" fill="#665CA7"/>
</svg>
