<svg width="16" height="16" viewBox="0 0 16 16" fill="none" xmlns="http://www.w3.org/2000/svg">
<path d="M8.95341 15.5145H8.2222V0.484763H8.95341C9.01787 0.484763 9.07968 0.459226 9.12526 0.413771C9.17083 0.368315 9.19644 0.306665 9.19644 0.242381C9.19644 0.178098 9.17083 0.116447 9.12526 0.0709918C9.07968 0.0255365 9.01787 0 8.95341 0L7.97917 0C-2.66286 0.439405 -2.65789 15.5641 7.97917 16H8.95341C9.01569 15.9966 9.0743 15.9696 9.11719 15.9245C9.16009 15.8793 9.18399 15.8195 9.18399 15.7573C9.18399 15.6951 9.16009 15.6352 9.11719 15.5901C9.0743 15.5449 9.01569 15.5179 8.95341 15.5145ZM7.73614 8.24238V10.7101C6.74957 10.7454 5.7737 10.9264 4.84042 11.2473C4.38396 10.307 4.11969 9.28555 4.06302 8.24238H7.73614ZM4.06302 7.75762C4.11969 6.71422 4.38396 5.69249 4.84042 4.75195C5.7737 5.0729 6.74957 5.25394 7.73614 5.28916V7.75762H4.06302ZM7.73614 0.793763V4.80369C6.82339 4.77069 5.92027 4.60573 5.05503 4.31396C5.76181 3.00997 6.66616 1.8226 7.73614 0.793763ZM7.30978 0.523033C6.21415 1.57918 5.29316 2.80175 4.58105 4.14529C3.80261 3.84586 3.05393 3.47453 2.34478 3.03614C3.61705 1.595 5.39514 0.695509 7.31262 0.523033H7.30978ZM2.02572 3.41106C2.76887 3.87434 3.55398 4.26704 4.37071 4.58398C3.89863 5.57937 3.62794 6.65781 3.57413 7.75762H0.450302C0.500688 6.17894 1.05232 4.65697 2.02572 3.41106ZM3.57626 8.24238C3.63007 9.34219 3.90076 10.4206 4.37285 11.416C3.55606 11.7329 2.77095 12.1256 2.02785 12.5889C1.05404 11.3431 0.50169 9.82123 0.450302 8.24238H3.57626ZM2.34478 12.9631C3.05598 12.5249 3.80653 12.1535 4.58674 11.854C5.29887 13.1977 6.21985 14.4205 7.31546 15.477C5.39689 15.3049 3.61767 14.4051 2.34478 12.9631ZM5.05787 11.6875C5.9232 11.396 6.82627 11.2311 7.73899 11.1977V15.2077C6.66764 14.1785 5.76229 12.9904 5.05503 11.6853L5.05787 11.6875ZM14.462 1.62367C14.4141 1.62244 14.3676 1.60734 14.3281 1.58021C14.2886 1.55308 14.2579 1.51508 14.2396 1.47085C14.2214 1.42662 14.2165 1.37805 14.2254 1.33107C14.2344 1.28409 14.2568 1.24072 14.2901 1.20624C14.3182 1.17788 14.353 1.15693 14.3913 1.14525C14.4295 1.13357 14.4701 1.13153 14.5094 1.1393C14.5486 1.14708 14.5853 1.16443 14.6162 1.18981C14.6471 1.21519 14.6712 1.2478 14.6864 1.28474C14.7016 1.32167 14.7073 1.36178 14.7032 1.40148C14.699 1.44118 14.6851 1.47924 14.6626 1.51224C14.6401 1.54525 14.6097 1.57219 14.5742 1.59064C14.5387 1.60909 14.4992 1.61849 14.4592 1.618L14.462 1.62367ZM13.1652 1.62367C13.1007 1.62367 13.0389 1.59813 12.9933 1.55268C12.9477 1.50722 12.9221 1.44557 12.9221 1.38129C12.9221 1.31701 12.9477 1.25536 12.9933 1.2099C13.0389 1.16445 13.1007 1.13891 13.1652 1.13891C13.2225 1.14807 13.2746 1.17738 13.3121 1.22154C13.3496 1.2657 13.3701 1.32179 13.3697 1.37967C13.3694 1.43755 13.3483 1.4934 13.3103 1.53711C13.2722 1.58083 13.2197 1.60952 13.1623 1.618L13.1652 1.62367ZM11.869 1.62367C11.8213 1.62201 11.7751 1.60664 11.7359 1.5794C11.6967 1.55217 11.6662 1.51423 11.6481 1.47015C11.6301 1.42606 11.6251 1.37771 11.6339 1.33089C11.6427 1.28408 11.6649 1.24079 11.6978 1.20624C11.7259 1.17751 11.7608 1.15621 11.7993 1.14426C11.8377 1.13231 11.8785 1.13008 11.9181 1.13777C11.9576 1.14546 11.9946 1.16283 12.0258 1.18832C12.0569 1.2138 12.0812 1.24661 12.0965 1.28379C12.1117 1.32096 12.1175 1.36134 12.1132 1.40129C12.109 1.44124 12.0948 1.4795 12.0721 1.51264C12.0493 1.54579 12.0186 1.57277 11.9828 1.59116C11.947 1.60955 11.9072 1.61877 11.8669 1.618L11.869 1.62367ZM15.9998 0.242381V15.7569C15.9998 15.8213 15.9742 15.883 15.9286 15.9286C15.8831 15.9741 15.8213 15.9998 15.7568 16H10.2481C10.1859 15.9966 10.1272 15.9696 10.0844 15.9245C10.0415 15.8793 10.0176 15.8195 10.0176 15.7573C10.0176 15.6951 10.0415 15.6352 10.0844 15.5901C10.1272 15.5449 10.1859 15.5179 10.2481 15.5145H15.5137V2.7477H9.27603C9.21157 2.7477 9.14976 2.72216 9.10418 2.6767C9.0586 2.63125 9.033 2.5696 9.033 2.50532C9.033 2.44103 9.0586 2.37938 9.10418 2.33393C9.14976 2.28847 9.21157 2.26293 9.27603 2.26293H15.5137V0.484763H10.2481C10.1837 0.484763 10.1219 0.459226 10.0763 0.413771C10.0307 0.368315 10.0051 0.306665 10.0051 0.242381C10.0051 0.178098 10.0307 0.116447 10.0763 0.0709918C10.1219 0.0255365 10.1837 0 10.2481 0L15.7568 0C15.8212 0 15.883 0.0255365 15.9286 0.0709918C15.9742 0.116447 15.9998 0.178098 15.9998 0.242381ZM13.5695 7.75478V5.00992H9.27745C9.21299 5.00992 9.15118 4.98439 9.1056 4.93893C9.06002 4.89348 9.03442 4.83182 9.03442 4.76754C9.03442 4.70326 9.06002 4.64161 9.1056 4.59615C9.15118 4.5507 9.21299 4.52516 9.27745 4.52516H13.8125C13.877 4.52516 13.9388 4.5507 13.9844 4.59615C14.03 4.64161 14.0556 4.70326 14.0556 4.76754V8C14.0556 8.03183 14.0493 8.06335 14.0371 8.09276C14.0248 8.12216 14.0069 8.14888 13.9844 8.17139C13.9618 8.1939 13.935 8.21175 13.9055 8.22393C13.8761 8.23611 13.8444 8.24238 13.8125 8.24238H9.27745C9.21299 8.24238 9.15118 8.21685 9.1056 8.17139C9.06002 8.12593 9.03442 8.06428 9.03442 8C9.03442 7.93572 9.06002 7.87407 9.1056 7.82861C9.15118 7.78315 9.21299 7.75762 9.27745 7.75762L13.5695 7.75478ZM9.03371 9.93692C9.0339 9.87258 9.05966 9.81093 9.10535 9.76549C9.15104 9.72006 9.21293 9.69454 9.27745 9.69454H13.8125C13.877 9.69454 13.9388 9.72008 13.9844 9.76553C14.03 9.81099 14.0556 9.87264 14.0556 9.93692C14.0556 10.0012 14.03 10.0629 13.9844 10.1083C13.9388 10.1538 13.877 10.1793 13.8125 10.1793H9.27745C9.21341 10.1793 9.15195 10.1542 9.10634 10.1094C9.06073 10.0645 9.03464 10.0036 9.03371 9.93976V9.93692ZM9.03371 11.876C9.0338 11.8441 9.04018 11.8126 9.05248 11.7833C9.06478 11.7539 9.08276 11.7272 9.10539 11.7048C9.12803 11.6824 9.15487 11.6646 9.18439 11.6525C9.21391 11.6404 9.24553 11.6342 9.27745 11.6343H13.8125C13.8455 11.6325 13.8785 11.6375 13.9095 11.6488C13.9405 11.6602 13.9688 11.6777 13.9928 11.7004C14.0168 11.723 14.0359 11.7503 14.0489 11.7806C14.062 11.8108 14.0687 11.8434 14.0687 11.8763C14.0687 11.9093 14.062 11.9418 14.0489 11.9721C14.0359 12.0024 14.0168 12.0296 13.9928 12.0523C13.9688 12.0749 13.9405 12.0925 13.9095 12.1038C13.8785 12.1152 13.8455 12.1201 13.8125 12.1184H9.27745C9.21336 12.1185 9.15179 12.0935 9.10614 12.0486C9.06049 12.0038 9.03446 11.9427 9.03371 11.8788V11.876ZM12.1916 14.0581H9.27816C9.21607 14.0548 9.15763 14.0278 9.11486 13.9828C9.0721 13.9378 9.04827 13.8781 9.04827 13.8161C9.04827 13.7541 9.0721 13.6944 9.11486 13.6494C9.15763 13.6044 9.21607 13.5774 9.27816 13.5741H12.1916C12.2564 13.5741 12.3185 13.5997 12.3642 13.6454C12.41 13.691 12.4357 13.7529 12.4357 13.8175C12.4357 13.8821 12.41 13.944 12.3642 13.9896C12.3185 14.0353 12.2564 14.061 12.1916 14.061V14.0581Z" fill="black"/>
</svg>
