<svg width="16" height="16" viewBox="0 0 16 16" fill="none" xmlns="http://www.w3.org/2000/svg">
<path d="M6.75 0.999023C6.69016 0.999067 6.63231 1.02057 6.58698 1.05964C6.54164 1.0987 6.51182 1.15273 6.50293 1.21191L6.26758 2.79785C6.02064 2.88025 5.78065 2.97925 5.54785 3.0957L4.26074 2.14062C4.21251 2.10484 4.153 2.08761 4.09311 2.0921C4.03322 2.09658 3.97694 2.12247 3.93457 2.16504L2.16602 3.93359C2.12371 3.97591 2.09797 4.03199 2.09349 4.09166C2.08901 4.15133 2.10608 4.21063 2.1416 4.25879L3.0957 5.54492C2.97935 5.77827 2.87997 6.01915 2.79785 6.2666L1.21387 6.50098C1.15434 6.50968 1.09995 6.53955 1.06067 6.58511C1.02138 6.63067 0.999844 6.68887 1 6.74902V9.24902C1.00004 9.30887 1.02155 9.36671 1.06062 9.41205C1.09968 9.45738 1.15371 9.48721 1.21289 9.49609L2.79981 9.73145C2.88206 9.9779 2.98144 10.2178 3.09766 10.4502L2.1416 11.7383C2.10582 11.7865 2.08859 11.846 2.09307 11.9059C2.09756 11.9658 2.12345 12.0221 2.16602 12.0645L3.93457 13.833C3.97706 13.8754 4.03341 13.9011 4.09329 13.9054C4.15318 13.9097 4.21262 13.8924 4.26074 13.8564L5.5459 12.9033C5.7795 13.0198 6.02079 13.1189 6.26856 13.2012L6.50098 14.7715V14.7734L6.50293 14.7852C6.50736 14.818 6.51828 14.8497 6.53507 14.8783C6.55185 14.9069 6.57417 14.9319 6.60071 14.9518C6.62725 14.9717 6.65748 14.9862 6.68965 14.9943C6.72182 15.0024 6.75528 15.004 6.78809 14.999H9.21192C9.24643 15.0044 9.28169 15.0025 9.31542 14.9934C9.34915 14.9843 9.3806 14.9682 9.40774 14.9462C9.43488 14.9242 9.45712 14.8968 9.47301 14.8657C9.4889 14.8346 9.49809 14.8005 9.5 14.7656L9.73242 13.1992C9.97936 13.1168 10.2193 13.0178 10.4521 12.9014L11.7393 13.8564C11.7875 13.8922 11.847 13.9095 11.9069 13.905C11.9668 13.9005 12.0231 13.8746 12.0654 13.832L13.834 12.0635C13.8763 12.0212 13.902 11.9651 13.9065 11.9054C13.911 11.8457 13.8939 11.7864 13.8584 11.7383L12.9043 10.4512C13.0207 10.2178 13.12 9.97792 13.2021 9.73047L14.7861 9.49512C14.8453 9.48647 14.8995 9.45688 14.9387 9.41173C14.9779 9.36657 14.9997 9.30884 15 9.24902V6.74902C15.0002 6.68901 14.9788 6.63093 14.9397 6.58539C14.9006 6.53985 14.8465 6.50989 14.7871 6.50098L13.2002 6.26562C13.1179 6.01918 13.0186 5.77922 12.9023 5.54688L13.8584 4.25879C13.8939 4.21063 13.911 4.15133 13.9065 4.09166C13.902 4.03199 13.8763 3.97591 13.834 3.93359L12.0654 2.16504C12.0232 2.12233 11.967 2.09625 11.9071 2.09159C11.8472 2.08693 11.7876 2.10399 11.7393 2.13965L10.4541 3.09277C10.2205 2.97627 9.97922 2.87717 9.73145 2.79492L9.49707 1.21094C9.48797 1.15193 9.45806 1.09814 9.41274 1.05927C9.36743 1.0204 9.3097 0.999031 9.25 0.999023H6.75ZM6.96582 1.49902H9.03418L9.25781 3.00781C9.26475 3.05489 9.28497 3.09901 9.31611 3.13499C9.34725 3.17097 9.388 3.19732 9.43359 3.21094C9.75908 3.30799 10.0739 3.43778 10.373 3.59863C10.4149 3.62114 10.4623 3.63126 10.5097 3.6278C10.5571 3.62434 10.6025 3.60745 10.6406 3.5791L11.8643 2.6709L13.3281 4.13379L12.417 5.36133C12.3888 5.39956 12.3721 5.44503 12.3688 5.49242C12.3655 5.53981 12.3758 5.58715 12.3984 5.62891C12.5591 5.92691 12.6889 6.24025 12.7861 6.56445C12.7997 6.60991 12.8259 6.65058 12.8617 6.6817C12.8975 6.71283 12.9414 6.73313 12.9883 6.74023L14.5 6.96387V9.0332L12.9912 9.25586C12.9441 9.26279 12.9 9.28302 12.864 9.31415C12.8281 9.34529 12.8017 9.38605 12.7881 9.43164C12.691 9.75714 12.5612 10.072 12.4004 10.3711C12.3777 10.4129 12.3675 10.4602 12.3708 10.5076C12.374 10.555 12.3908 10.6004 12.4189 10.6387L13.3281 11.8633L11.8643 13.3262L10.6377 12.416C10.5996 12.3877 10.5541 12.3708 10.5067 12.3673C10.4594 12.3639 10.412 12.374 10.3701 12.3965C10.0928 12.546 9.80044 12.666 9.5 12.7607V10.5928C10.3952 10.073 11 9.10633 11 7.99902C10.9987 6.87337 10.366 5.8427 9.36328 5.33105C9.32526 5.31173 9.28292 5.30246 9.2403 5.30412C9.19768 5.30578 9.15619 5.31831 9.11979 5.34053C9.08338 5.36275 9.05326 5.39391 9.03229 5.43105C9.01132 5.46819 9.00021 5.51008 9 5.55273V7.85742L8 8.45703L7 7.85742V5.5498C7.00001 5.51631 6.9933 5.48315 6.98025 5.4523C6.96719 5.42145 6.94808 5.39353 6.92403 5.37021C6.89998 5.3469 6.87149 5.32865 6.84026 5.31655C6.80902 5.30446 6.77567 5.29876 6.74219 5.2998C6.70545 5.30106 6.66944 5.31039 6.63672 5.32715C5.63303 5.83935 5.00012 6.87217 5 7.99902C5 9.10633 5.60483 10.073 6.5 10.5928V12.7627C6.19844 12.6681 5.90538 12.5482 5.62695 12.3984C5.58511 12.3759 5.53771 12.3658 5.49032 12.3693C5.44293 12.3727 5.39751 12.3896 5.35938 12.418L4.13574 13.3262L2.67188 11.8633L3.58301 10.6357C3.6112 10.5975 3.62792 10.552 3.6312 10.5047C3.63449 10.4573 3.62421 10.4099 3.60156 10.3682C3.44095 10.0702 3.31114 9.75682 3.21387 9.43262C3.20032 9.38716 3.17412 9.34649 3.13832 9.31537C3.10253 9.28424 3.05862 9.26394 3.01172 9.25684L1.5 9.0332V6.96484L3.00879 6.74121C3.05587 6.73428 3.09998 6.71405 3.13596 6.68292C3.17195 6.65178 3.19829 6.61102 3.21192 6.56543C3.30896 6.23993 3.43877 5.92508 3.59961 5.62598C3.62226 5.58422 3.63254 5.53688 3.62925 5.48949C3.62596 5.4421 3.60925 5.39663 3.58106 5.3584L2.67188 4.13379L4.13574 2.6709L5.36231 3.58105C5.40044 3.6094 5.44586 3.62629 5.49325 3.62975C5.54064 3.63321 5.58804 3.62309 5.62988 3.60059C5.92783 3.43999 6.2422 3.30921 6.56641 3.21191C6.61168 3.19821 6.65214 3.17194 6.68308 3.13615C6.71403 3.10037 6.73418 3.05655 6.74121 3.00977L6.96582 1.49902ZM6.5 6.1084V7.99902C6.50006 8.04208 6.51124 8.08439 6.53246 8.12186C6.55367 8.15933 6.5842 8.19069 6.6211 8.21289L7.8711 8.96289C7.91002 8.98631 7.95458 8.99868 8 8.99868C8.04542 8.99868 8.08999 8.98631 8.12891 8.96289L9.37891 8.21289C9.4158 8.19069 9.44633 8.15933 9.46755 8.12186C9.48876 8.08439 9.49994 8.04208 9.5 7.99902V6.11133C10.0853 6.57938 10.4991 7.23142 10.5 7.99902C10.5 9.38267 9.38367 10.499 8 10.499C6.61633 10.499 5.5 9.38267 5.5 7.99902C5.50008 7.23057 5.91416 6.57705 6.5 6.1084ZM7 10.8232C7.31348 10.9347 7.64883 10.999 8 10.999C8.35117 10.999 8.68652 10.9347 9 10.8232V14.499H7V10.8232Z" fill="black"/>
</svg>
