<svg width="15" height="15" viewBox="0 0 15 15" fill="none" xmlns="http://www.w3.org/2000/svg">
<path d="M14.6604 7.08385C14.6428 8.94127 14.1653 10.3944 13.1721 11.6571C12.1057 13.0135 10.717 13.8749 9.01779 14.2235C7.70529 14.4901 6.42795 14.3729 5.17404 13.9188C4.89572 13.8163 4.62326 13.6962 4.36252 13.5526C4.28341 13.5087 4.21603 13.5028 4.12814 13.5321C2.94162 13.9159 1.75217 14.2967 0.562712 14.6747C0.509978 14.6922 0.439665 14.7421 0.398649 14.704C0.351774 14.6571 0.410368 14.5868 0.427946 14.5311C0.665251 13.8251 0.902556 13.1161 1.14279 12.41C1.28927 11.9794 1.4299 11.5516 1.58224 11.1239C1.62326 11.0126 1.60861 10.9276 1.54709 10.8251C1.24533 10.3094 1.02267 9.75865 0.86447 9.18151C0.568571 8.09752 0.536345 7.00182 0.76779 5.90612C1.01974 4.7108 1.54709 3.6444 2.35861 2.72447C3.34006 1.61119 4.55002 0.875842 5.98849 0.52135C6.90549 0.295764 7.83127 0.260608 8.76291 0.412951C9.98166 0.61217 11.0803 1.09557 12.0383 1.87487C13.0344 2.68639 13.761 3.6942 14.218 4.90416C14.4699 5.55748 14.6692 6.62682 14.6604 7.08385ZM2.18576 12.9344C2.91232 12.7001 3.60666 12.4774 4.29513 12.2518C4.38595 12.2225 4.4592 12.2284 4.5383 12.2811C4.80197 12.4569 5.08615 12.5975 5.37912 12.7206C6.33127 13.1249 7.3215 13.2713 8.34396 13.1395C9.59787 12.9784 10.6994 12.4745 11.6252 11.5985C12.7912 10.494 13.4153 9.14049 13.4709 7.54088C13.5236 5.9735 13.0197 4.59655 11.968 3.4276C10.969 2.31725 9.71506 1.68444 8.23556 1.52623C6.94943 1.38854 5.74533 1.66686 4.63205 2.33483C3.6799 2.90905 2.95041 3.69127 2.44357 4.67858C1.884 5.76549 1.69357 6.91979 1.8547 8.12975C1.97482 9.04381 2.30295 9.88463 2.83029 10.6405C2.88888 10.7255 2.90646 10.7958 2.87131 10.8954C2.76291 11.1942 2.66623 11.496 2.56369 11.7948C2.44064 12.1639 2.32052 12.5331 2.18576 12.9344Z" fill="#51C85D"/>
<path d="M4.13094 5.70367C4.14559 5.0064 4.39169 4.48785 4.85751 4.07476C5.00692 3.94 5.19149 3.8814 5.3995 3.9107C5.48739 3.92242 5.57528 3.93121 5.66317 3.92535C5.82723 3.91656 5.93856 3.99566 5.99423 4.13922C6.19051 4.64898 6.38094 5.15875 6.57137 5.67144C6.63583 5.84722 6.5245 5.98492 6.43075 6.1109C6.32235 6.26031 6.19051 6.39214 6.06161 6.52398C5.92977 6.65875 5.91219 6.73492 6.00301 6.89898C6.53329 7.86285 7.27743 8.60406 8.28817 9.06109C8.32333 9.07574 8.35848 9.09625 8.39364 9.11382C8.52841 9.17535 8.64852 9.1607 8.75106 9.04351C8.93856 8.82379 9.14364 8.62164 9.31649 8.39019C9.43075 8.23785 9.50985 8.21148 9.6827 8.28765C10.1983 8.51031 10.6817 8.79156 11.1739 9.06402C11.2647 9.11382 11.297 9.19 11.294 9.29546C11.2677 10.1597 10.7725 10.6109 9.90243 10.8101C9.48055 10.9068 9.09091 10.8013 8.70419 10.6607C7.89266 10.3677 7.11044 10.022 6.45419 9.44195C5.9327 8.97906 5.47274 8.46343 5.08309 7.88629C4.78426 7.44097 4.47372 7.00445 4.30087 6.48589C4.20126 6.2105 4.12801 5.92925 4.13094 5.70367Z" fill="#51C85D"/>
</svg>
