<svg width="150" height="32" viewBox="0 0 150 32" fill="none" xmlns="http://www.w3.org/2000/svg">
<path d="M8.07912 16.1669C8.07912 16.5661 8.42978 16.894 9.13109 17.1506C9.86046 17.4072 10.7301 17.6496 11.74 17.8777C12.7779 18.1058 13.8018 18.4337 14.8117 18.8614C15.8497 19.2606 16.7193 19.9591 17.4206 20.9571C18.15 21.955 18.5147 23.2096 18.5147 24.7208C18.5147 27.1729 17.617 28.9835 15.8216 30.1525C14.0263 31.3216 11.8943 31.9061 9.42564 31.9061C4.71282 31.9061 1.57094 30.2096 0 26.8165L6.10142 23.6943C6.63442 25.2625 7.72847 26.0467 9.38357 26.0467C10.6459 26.0467 11.2771 25.6617 11.2771 24.8919C11.2771 24.4927 10.9265 24.1648 10.2251 23.9082C9.52383 23.6516 8.66823 23.3949 7.65834 23.1383C6.64845 22.8817 5.63856 22.5396 4.62866 22.1119C3.61877 21.6842 2.76317 20.9998 2.06186 20.0589C1.36055 19.0895 1.00989 17.9062 1.00989 16.509C1.00989 14.228 1.83744 12.4602 3.49254 11.2056C5.14764 9.95105 7.13937 9.32376 9.46772 9.32376C13.6195 9.32376 16.5089 10.9775 18.136 14.285L12.2449 16.9795C11.6278 15.7535 10.7581 15.1404 9.63604 15.1404C8.59809 15.1404 8.07912 15.4826 8.07912 16.1669ZM27.5481 6.97144C26.7627 7.7698 25.8229 8.16899 24.7289 8.16899C23.6348 8.16899 22.681 7.7698 21.8675 6.97144C21.082 6.14456 20.6893 5.17512 20.6893 4.06311C20.6893 2.9511 21.082 1.99591 21.8675 1.19755C22.681 0.399182 23.6348 0 24.7289 0C25.8229 0 26.7627 0.399182 27.5481 1.19755C28.3617 1.99591 28.7684 2.9511 28.7684 4.06311C28.7684 5.17512 28.3617 6.14456 27.5481 6.97144ZM21.2363 31.3073V9.92254H28.2214V31.3073H21.2363ZM45.2936 16.7229H40.9174V22.9245C40.9174 23.8654 41.254 24.4499 41.9273 24.678C42.6006 24.9061 43.7227 24.9774 45.2936 24.8919V31.3073C41.1138 31.8205 38.1683 31.4356 36.4571 30.1525C34.7739 28.8409 33.9323 26.4886 33.9323 23.0956V16.7229H30.7764V9.92254H33.9323V6.07328L40.9174 3.9348V9.92254H45.2936V16.7229ZM54.3795 23.2239C55.0808 24.9632 56.6518 25.8328 59.0923 25.8328C60.6072 25.8328 61.8836 25.3338 62.9215 24.3359L67.971 27.9285C65.8951 30.5802 62.8794 31.9061 58.924 31.9061C55.3614 31.9061 52.5 30.8511 50.34 28.7411C48.208 26.6027 47.142 23.9082 47.142 20.6577C47.142 17.4357 48.1939 14.7412 50.2979 12.5742C52.4018 10.4073 55.0808 9.32376 58.3349 9.32376C61.4768 9.32376 64.0717 10.393 66.1195 12.5315C68.1673 14.67 69.1912 17.3502 69.1912 20.5722C69.1912 21.5131 69.0931 22.397 68.8967 23.2239H54.3795ZM54.2954 18.3054H62.3745C61.8134 16.3095 60.495 15.3115 58.4191 15.3115C56.259 15.3115 54.8845 16.3095 54.2954 18.3054ZM82.3341 31.9061C79.2203 31.9061 76.5693 30.8226 74.3812 28.6556C72.1931 26.4601 71.0991 23.7799 71.0991 20.6149C71.0991 17.45 72.1931 14.784 74.3812 12.617C76.5693 10.4215 79.2203 9.32376 82.3341 9.32376C85.476 9.32376 88.127 10.4215 90.287 12.617C92.4751 14.784 93.5692 17.45 93.5692 20.6149C93.5692 23.7799 92.4751 26.4601 90.287 28.6556C88.127 30.8226 85.476 31.9061 82.3341 31.9061ZM82.3341 25.063C83.5684 25.063 84.5783 24.6495 85.3638 23.8226C86.1773 22.9958 86.5841 21.9265 86.5841 20.6149C86.5841 19.3033 86.1773 18.2341 85.3638 17.4072C84.5783 16.5803 83.5684 16.1669 82.3341 16.1669C81.1279 16.1669 80.118 16.5803 79.3045 17.4072C78.519 18.2341 78.1263 19.3033 78.1263 20.6149C78.1263 21.9265 78.519 22.9958 79.3045 23.8226C80.118 24.6495 81.1279 25.063 82.3341 25.063ZM102.839 16.1669C102.839 16.5661 103.189 16.894 103.891 17.1506C104.62 17.4072 105.49 17.6496 106.499 17.8777C107.537 18.1058 108.561 18.4337 109.571 18.8614C110.609 19.2606 111.479 19.9591 112.18 20.9571C112.909 21.955 113.274 23.2096 113.274 24.7208C113.274 27.1729 112.376 28.9835 110.581 30.1525C108.786 31.3216 106.654 31.9061 104.185 31.9061C99.4723 31.9061 96.3304 30.2096 94.7594 26.8165L100.861 23.6943C101.394 25.2625 102.488 26.0467 104.143 26.0467C105.405 26.0467 106.037 25.6617 106.037 24.8919C106.037 24.4927 105.686 24.1648 104.985 23.9082C104.283 23.6516 103.428 23.3949 102.418 23.1383C101.408 22.8817 100.398 22.5396 99.3881 22.1119C98.3782 21.6842 97.5226 20.9998 96.8213 20.0589C96.12 19.0895 95.7693 17.9062 95.7693 16.509C95.7693 14.228 96.5969 12.4602 98.252 11.2056C99.9071 9.95105 101.899 9.32376 104.227 9.32376C108.379 9.32376 111.268 10.9775 112.895 14.285L107.004 16.9795C106.387 15.7535 105.518 15.1404 104.395 15.1404C103.358 15.1404 102.839 15.4826 102.839 16.1669ZM128.424 16.7229H124.048V22.9245C124.048 23.8654 124.384 24.4499 125.058 24.678C125.731 24.9061 126.853 24.9774 128.424 24.8919V31.3073C124.244 31.8205 121.299 31.4356 119.587 30.1525C117.904 28.8409 117.063 26.4886 117.063 23.0956V16.7229H113.907V9.92254H117.063V6.07328L124.048 3.9348V9.92254H128.424V16.7229ZM136.021 31.9061C134.787 31.9061 133.735 31.4784 132.865 30.623C132.024 29.7391 131.603 28.6841 131.603 27.458C131.603 26.232 132.038 25.1913 132.907 24.3359C133.777 23.452 134.815 23.01 136.021 23.01C137.228 23.01 138.251 23.452 139.093 24.3359C139.963 25.1913 140.398 26.232 140.398 27.458C140.398 28.6841 139.963 29.7391 139.093 30.623C138.251 31.4784 137.228 31.9061 136.021 31.9061Z" fill="#B2FD53"/>
<path d="M150 28.8407C150 29.7434 149.707 30.4956 149.122 31.0974C148.536 31.6992 147.812 32.0001 146.949 32.0001C146.086 32.0001 145.361 31.6992 144.776 31.0974C144.19 30.4956 143.897 29.7434 143.897 28.8407C143.897 28.2547 144.032 27.7242 144.302 27.2491C144.572 26.7661 144.934 26.3939 145.388 26.1326L146.336 27.8192C145.959 28.033 145.77 28.3775 145.77 28.8525C145.77 29.1851 145.882 29.4623 146.105 29.684C146.321 29.9057 146.602 30.0165 146.949 30.0165C147.296 30.0165 147.581 29.9057 147.804 29.684C148.02 29.4623 148.128 29.1851 148.128 28.8525C148.128 28.3616 147.935 28.0172 147.55 27.8192L148.498 26.1326C148.96 26.3939 149.326 26.7661 149.596 27.2491C149.865 27.7242 150 28.2547 150 28.8407ZM150 22.7277C150 23.6066 149.707 24.3549 149.122 24.9725C148.528 25.5902 147.804 25.899 146.949 25.899C146.094 25.899 145.373 25.5902 144.787 24.9725C144.194 24.3549 143.897 23.6066 143.897 22.7277C143.897 21.8409 144.194 21.0926 144.787 20.4829C145.373 19.8652 146.094 19.5564 146.949 19.5564C147.804 19.5564 148.528 19.8652 149.122 20.4829C149.707 21.0926 150 21.8409 150 22.7277ZM148.151 22.7277C148.151 22.3793 148.039 22.0942 147.816 21.8725C147.592 21.6429 147.303 21.5281 146.949 21.5281C146.594 21.5281 146.305 21.6429 146.082 21.8725C145.858 22.0942 145.747 22.3793 145.747 22.7277C145.747 23.0682 145.858 23.3532 146.082 23.5829C146.305 23.8046 146.594 23.9154 146.949 23.9154C147.303 23.9154 147.592 23.8046 147.816 23.5829C148.039 23.3532 148.151 23.0682 148.151 22.7277ZM143.897 11.8716C143.897 11.1827 144.113 10.6403 144.545 10.2444C144.969 9.84059 145.554 9.63867 146.302 9.63867H149.838V11.6222H146.521C145.982 11.6222 145.712 11.8677 145.712 12.3586C145.712 12.6278 145.801 12.8337 145.978 12.9762C146.147 13.1108 146.382 13.1781 146.683 13.1781H149.838V15.1498H146.521C145.982 15.1498 145.712 15.3992 145.712 15.8981C145.712 16.1673 145.801 16.3732 145.978 16.5157C146.147 16.6503 146.382 16.7176 146.683 16.7176H149.838V18.6893H144.059V16.7176H144.603C144.132 16.3534 143.897 15.8189 143.897 15.1142C143.897 14.4332 144.144 13.9264 144.637 13.5939C144.144 13.1821 143.897 12.608 143.897 11.8716Z" fill="#B2FD53"/>
</svg>
