<svg width="28" height="20" viewBox="0 0 28 20" fill="none" xmlns="http://www.w3.org/2000/svg">
<path d="M1 0H27C27.2652 0 27.5196 0.105357 27.7071 0.292893C27.8946 0.48043 28 0.734784 28 1C28 1.26522 27.8946 1.51957 27.7071 1.70711C27.5196 1.89464 27.2652 2 27 2H1C0.734783 2 0.480429 1.89464 0.292892 1.70711C0.105356 1.51957 0 1.26522 0 1C0 0.734784 0.105356 0.48043 0.292892 0.292893C0.480429 0.105357 0.734783 0 1 0Z" fill="white"/>
<path d="M27 11H14C13.7348 11 13.4804 10.8946 13.2929 10.7071C13.1054 10.5196 13 10.2652 13 10C13 9.73478 13.1054 9.48043 13.2929 9.29289C13.4804 9.10536 13.7348 9 14 9H27C27.2652 9 27.5196 9.10536 27.7071 9.29289C27.8946 9.48043 28 9.73478 28 10C28 10.2652 27.8946 10.5196 27.7071 10.7071C27.5196 10.8946 27.2652 11 27 11Z" fill="white"/>
<path d="M5 18H27C27.2652 18 27.5196 18.1054 27.7071 18.2929C27.8946 18.4804 28 18.7348 28 19C28 19.2652 27.8946 19.5196 27.7071 19.7071C27.5196 19.8946 27.2652 20 27 20H5C4.73478 20 4.48043 19.8946 4.29289 19.7071C4.10536 19.5196 4 19.2652 4 19C4 18.7348 4.10536 18.4804 4.29289 18.2929C4.48043 18.1054 4.73478 18 5 18Z" fill="white"/>
</svg>
