<svg width="16" height="16" viewBox="0 0 16 16" fill="none" xmlns="http://www.w3.org/2000/svg">
<path d="M9.21982 13.2503H6.77982C6.74295 13.2502 6.70692 13.2392 6.67623 13.2188C6.64555 13.1983 6.62158 13.1693 6.60732 13.1353L4.66232 8.43027C4.64441 8.3872 4.6432 8.339 4.65891 8.29508C4.67463 8.25117 4.70615 8.21469 4.74732 8.19277C7.30232 6.85277 7.80982 3.61526 7.81482 3.58276C7.82206 3.53892 7.84463 3.49907 7.87851 3.47032C7.91239 3.44156 7.95539 3.42578 7.99982 3.42578C8.04426 3.42578 8.08726 3.44156 8.12114 3.47032C8.15502 3.49907 8.17759 3.53892 8.18482 3.58276C8.18482 3.61526 8.68482 6.85277 11.2523 8.19277C11.2935 8.21469 11.325 8.25117 11.3407 8.29508C11.3565 8.339 11.3552 8.3872 11.3373 8.43027L9.39232 13.1253C9.37965 13.1611 9.35636 13.1923 9.32555 13.2146C9.29474 13.237 9.25786 13.2494 9.21982 13.2503ZM6.90482 12.8753H9.09482L10.9273 8.45277C9.09982 7.40777 8.31232 5.51526 7.99982 4.44026C7.68732 5.51526 6.89982 7.40776 5.07232 8.44026L6.90482 12.8753Z" fill="black"/>
<path d="M8 8.52035C7.95047 8.5197 7.90316 8.49974 7.86813 8.46472C7.83311 8.4297 7.81315 8.38238 7.8125 8.33285V3.61035C7.8125 3.56062 7.83225 3.51293 7.86742 3.47777C7.90258 3.44261 7.95027 3.42285 8 3.42285C8.04973 3.42285 8.09742 3.44261 8.13258 3.47777C8.16775 3.51293 8.1875 3.56062 8.1875 3.61035V8.33285C8.18685 8.38238 8.16689 8.4297 8.13187 8.46472C8.09684 8.49974 8.04953 8.5197 8 8.52035Z" fill="black"/>
<path d="M8.00006 10.0245C7.81414 10.0245 7.63241 9.9694 7.47782 9.86611C7.32324 9.76282 7.20276 9.61602 7.13161 9.44425C7.06047 9.27249 7.04185 9.08349 7.07812 8.90115C7.11439 8.7188 7.20392 8.55131 7.33538 8.41985C7.46684 8.28839 7.63433 8.19886 7.81667 8.16259C7.99902 8.12632 8.18802 8.14494 8.35978 8.21609C8.53154 8.28723 8.67835 8.40771 8.78164 8.5623C8.88493 8.71688 8.94006 8.89862 8.94006 9.08453C8.9394 9.33363 8.84015 9.57234 8.66401 9.74848C8.48787 9.92462 8.24916 10.0239 8.00006 10.0245ZM8.00006 8.52453C7.88831 8.52453 7.77908 8.55767 7.68616 8.61975C7.59325 8.68183 7.52083 8.77008 7.47807 8.87332C7.4353 8.97656 7.42411 9.09016 7.44591 9.19976C7.46772 9.30936 7.52153 9.41003 7.60054 9.48905C7.67956 9.56806 7.78023 9.62187 7.88983 9.64368C7.99943 9.66548 8.11303 9.65429 8.21627 9.61152C8.31952 9.56876 8.40776 9.49634 8.46984 9.40343C8.53192 9.31051 8.56506 9.20128 8.56506 9.08953C8.56572 9.01491 8.55159 8.94091 8.52349 8.87178C8.4954 8.80265 8.45388 8.73978 8.40135 8.68678C8.34882 8.63378 8.28631 8.59172 8.21744 8.56301C8.14856 8.53431 8.07468 8.51953 8.00006 8.51953V8.52453Z" fill="black"/>
<path d="M9.86734 14.8577H6.13234C6.10763 14.8581 6.08309 14.8535 6.06019 14.8441C6.03729 14.8348 6.01649 14.821 5.99901 14.8036C5.98153 14.7861 5.96773 14.7653 5.95843 14.7424C5.94913 14.7195 5.94451 14.695 5.94484 14.6702V13.0527C5.94484 13.003 5.9646 12.9553 5.99976 12.9202C6.03492 12.885 6.08261 12.8652 6.13234 12.8652H9.86734C9.91707 12.8652 9.96476 12.885 9.99992 12.9202C10.0351 12.9553 10.0548 13.003 10.0548 13.0527V14.6702C10.0552 14.695 10.0506 14.7195 10.0413 14.7424C10.0319 14.7653 10.0182 14.7861 10.0007 14.8036C9.98319 14.821 9.96239 14.8348 9.93949 14.8441C9.91659 14.8535 9.89206 14.8581 9.86734 14.8577ZM6.31984 14.4827H9.67984V13.2502H6.31984V14.4827Z" fill="black"/>
<path d="M8.76486 3.05539H7.23486C7.18534 3.05474 7.13802 3.03478 7.103 2.99976C7.06797 2.96473 7.04801 2.91742 7.04736 2.86789V1.33789C7.04736 1.28816 7.06712 1.24047 7.10228 1.20531C7.13744 1.17015 7.18514 1.15039 7.23486 1.15039H8.76486C8.81459 1.15039 8.86228 1.17015 8.89745 1.20531C8.93261 1.24047 8.95236 1.28816 8.95236 1.33789V2.86789C8.95172 2.91742 8.93175 2.96473 8.89673 2.99976C8.86171 3.03478 8.81439 3.05474 8.76486 3.05539ZM7.42236 2.68039H8.57736V1.52539H7.42236V2.68039Z" fill="black"/>
<path d="M14.1475 3.05965C13.9575 3.05965 13.7718 3.00328 13.6139 2.89768C13.456 2.79209 13.3329 2.64201 13.2603 2.46645C13.1878 2.29088 13.1689 2.09773 13.2061 1.91144C13.2434 1.72515 13.3351 1.5541 13.4696 1.41994C13.6041 1.28578 13.7754 1.19455 13.9617 1.15779C14.1481 1.12103 14.3412 1.1404 14.5166 1.21344C14.692 1.28649 14.8417 1.40992 14.9469 1.56812C15.0521 1.72632 15.108 1.91217 15.1075 2.10215C15.1068 2.35632 15.0054 2.59986 14.8254 2.77936C14.6455 2.95885 14.4017 3.05965 14.1475 3.05965ZM14.1475 1.51715C14.0318 1.51715 13.9187 1.55146 13.8225 1.61574C13.7263 1.68002 13.6513 1.77138 13.607 1.87828C13.5628 1.98517 13.5512 2.1028 13.5737 2.21628C13.5963 2.32976 13.652 2.43399 13.7338 2.51581C13.8157 2.59762 13.9199 2.65334 14.0334 2.67591C14.1468 2.69848 14.2645 2.6869 14.3714 2.64262C14.4783 2.59834 14.5696 2.52336 14.6339 2.42716C14.6982 2.33095 14.7325 2.21785 14.7325 2.10215C14.7325 1.947 14.6709 1.7982 14.5612 1.68849C14.4514 1.57878 14.3026 1.51715 14.1475 1.51715Z" fill="black"/>
<path d="M1.85263 3.05965C1.66255 3.06014 1.4766 3.00419 1.31835 2.8989C1.16009 2.7936 1.03666 2.6437 0.963691 2.46818C0.890721 2.29266 0.8715 2.09943 0.908462 1.91297C0.945424 1.72652 1.03691 1.55524 1.17131 1.42083C1.30572 1.28642 1.47701 1.19494 1.66346 1.15797C1.84992 1.12101 2.04315 1.14023 2.21867 1.2132C2.39418 1.28617 2.54409 1.40961 2.64939 1.56786C2.75468 1.72611 2.81063 1.91206 2.81013 2.10215C2.80947 2.35589 2.70838 2.59905 2.52896 2.77847C2.34954 2.95789 2.10638 3.05899 1.85263 3.05965ZM1.85263 1.51715C1.73683 1.51665 1.62348 1.55054 1.52695 1.61452C1.43042 1.6785 1.35505 1.76969 1.31039 1.87654C1.26572 1.98339 1.25378 2.10109 1.27607 2.21473C1.29836 2.32838 1.35388 2.43285 1.43559 2.51491C1.5173 2.59698 1.62154 2.65294 1.73508 2.67572C1.84863 2.69849 1.96638 2.68705 2.07342 2.64285C2.18046 2.59865 2.27198 2.52367 2.33637 2.42741C2.40076 2.33116 2.43513 2.21795 2.43513 2.10215C2.43514 1.94743 2.37384 1.79901 2.26468 1.68937C2.15551 1.57973 2.00735 1.51781 1.85263 1.51715Z" fill="black"/>
<path d="M1.26274 8.31954H1.25024C1.20094 8.31326 1.15596 8.28816 1.12474 8.24949C1.09352 8.21081 1.07847 8.16156 1.08274 8.11204C1.25797 6.5417 1.95933 5.07684 3.07275 3.9557C4.18618 2.83457 5.64616 2.12311 7.21524 1.93704C7.23976 1.93391 7.26465 1.93572 7.28845 1.94237C7.31225 1.94902 7.33447 1.96037 7.35381 1.97575C7.37316 1.99113 7.38922 2.01023 7.40106 2.03192C7.4129 2.05361 7.42027 2.07745 7.42274 2.10204C7.42766 2.15169 7.41285 2.20128 7.38151 2.24011C7.35017 2.27893 7.30482 2.30387 7.25524 2.30954C5.76978 2.48405 4.38725 3.15664 3.33306 4.21765C2.27886 5.27865 1.61519 6.66548 1.45024 8.15204C1.44476 8.19801 1.42269 8.24039 1.38816 8.27123C1.35364 8.30208 1.30904 8.31925 1.26274 8.31954Z" fill="black"/>
<path d="M14.75 8.31954C14.7037 8.31925 14.6591 8.30208 14.6246 8.27123C14.59 8.24039 14.5679 8.19801 14.5625 8.15204C14.3972 6.66435 13.7324 5.27665 12.6767 4.2155C11.621 3.15436 10.2368 2.48247 8.74997 2.30954C8.7004 2.30387 8.65504 2.27893 8.6237 2.24011C8.59236 2.20128 8.57755 2.15169 8.58247 2.10204C8.58494 2.07745 8.59231 2.05361 8.60415 2.03192C8.61599 2.01023 8.63206 1.99113 8.6514 1.97575C8.67074 1.96037 8.69297 1.94902 8.71677 1.94237C8.74057 1.93572 8.76546 1.93391 8.78997 1.93704C10.3595 2.12258 11.8201 2.83381 12.934 3.95499C14.0479 5.07618 14.7496 6.54133 14.925 8.11204C14.9299 8.16142 14.915 8.21072 14.8836 8.24915C14.8522 8.28757 14.8068 8.31199 14.7575 8.31704L14.75 8.31954Z" fill="black"/>
<path d="M15.4998 9.76783H14.0523C14.0275 9.76817 14.003 9.76355 13.9801 9.75424C13.9572 9.74494 13.9364 9.73114 13.9189 9.71366C13.9015 9.69618 13.8877 9.67538 13.8784 9.65248C13.869 9.62958 13.8644 9.60505 13.8648 9.58033V8.13283C13.8644 8.10811 13.869 8.08358 13.8784 8.06068C13.8877 8.03778 13.9015 8.01698 13.9189 7.9995C13.9364 7.98202 13.9572 7.96822 13.9801 7.95892C14.003 7.94961 14.0275 7.94499 14.0523 7.94533H15.4998C15.5495 7.94533 15.5972 7.96508 15.6323 8.00025C15.6675 8.03541 15.6873 8.0831 15.6873 8.13283V9.58033C15.6873 9.63006 15.6675 9.67775 15.6323 9.71291C15.5972 9.74808 15.5495 9.76783 15.4998 9.76783ZM14.2498 9.39283H15.3223V8.32033H14.2498V9.39283Z" fill="black"/>
<path d="M1.9475 9.76783H0.5C0.450272 9.76783 0.402581 9.74808 0.367417 9.71291C0.332254 9.67775 0.3125 9.63006 0.3125 9.58033V8.13283C0.3125 8.0831 0.332254 8.03541 0.367417 8.00025C0.402581 7.96508 0.450272 7.94533 0.5 7.94533H1.9475C1.97222 7.94499 1.99675 7.94961 2.01965 7.95892C2.04255 7.96822 2.06335 7.98202 2.08083 7.9995C2.09831 8.01698 2.11211 8.03778 2.12141 8.06068C2.13072 8.08358 2.13534 8.10811 2.135 8.13283V9.58033C2.13534 9.60505 2.13072 9.62958 2.12141 9.65248C2.11211 9.67538 2.09831 9.69618 2.08083 9.71366C2.06335 9.73114 2.04255 9.74494 2.01965 9.75424C1.99675 9.76355 1.97222 9.76817 1.9475 9.76783ZM0.6975 9.39283H1.75V8.32033H0.6875L0.6975 9.39283Z" fill="black"/>
<path d="M13.3776 2.29004H8.76514C8.71541 2.29004 8.66772 2.27028 8.63255 2.23512C8.59739 2.19996 8.57764 2.15227 8.57764 2.10254C8.57764 2.05281 8.59739 2.00512 8.63255 1.96996C8.66772 1.93479 8.71541 1.91504 8.76514 1.91504H13.3776C13.4274 1.91504 13.4751 1.93479 13.5102 1.96996C13.5454 2.00512 13.5651 2.05281 13.5651 2.10254C13.5651 2.15227 13.5454 2.19996 13.5102 2.23512C13.4751 2.27028 13.4274 2.29004 13.3776 2.29004Z" fill="black"/>
<path d="M7.23506 2.29004H2.62256C2.57283 2.29004 2.52514 2.27028 2.48998 2.23512C2.45481 2.19996 2.43506 2.15227 2.43506 2.10254C2.43506 2.05281 2.45481 2.00512 2.48998 1.96996C2.52514 1.93479 2.57283 1.91504 2.62256 1.91504H7.23506C7.28479 1.91504 7.33248 1.93479 7.36764 1.96996C7.4028 2.00512 7.42256 2.05281 7.42256 2.10254C7.42256 2.15227 7.4028 2.19996 7.36764 2.23512C7.33248 2.27028 7.28479 2.29004 7.23506 2.29004Z" fill="black"/>
</svg>
