<svg width="178" height="178" viewBox="0 0 178 178" fill="none" xmlns="http://www.w3.org/2000/svg">
<path d="M163.917 92.4657C163.625 92.4453 163.37 92.6188 163.153 92.9859C162.95 93.3688 162.756 93.8331 162.571 94.3789C162.401 94.9257 162.187 95.4695 161.928 96.0102C161.685 96.552 161.301 96.9958 160.777 97.3416C160.252 97.702 159.617 97.8563 158.871 97.8044C157.744 97.726 156.903 97.2412 156.347 96.3498C155.806 95.4741 155.578 94.4071 155.666 93.1488C155.823 90.8956 156.8 89.4199 158.598 88.7216L159.81 91.2758C158.836 91.5316 158.311 92.2154 158.234 93.3274C158.163 94.337 158.443 94.8636 159.072 94.9074C159.365 94.9278 159.613 94.7465 159.816 94.3637C160.032 93.9965 160.233 93.54 160.418 92.9942C160.603 92.4484 160.825 91.9051 161.083 91.3644C161.341 90.8236 161.718 90.372 162.213 90.0096C162.723 89.6627 163.336 89.5142 164.053 89.5641C165.136 89.6394 165.957 90.0935 166.516 90.9263C167.089 91.7748 167.335 92.7916 167.252 93.9767C167.19 94.8693 166.929 95.667 166.468 96.3701C166.022 97.0742 165.412 97.6125 164.636 97.9849L163.487 95.4791C164.258 95.1799 164.671 94.6206 164.728 93.8012C164.754 93.4354 164.695 93.1226 164.551 92.8626C164.406 92.6173 164.195 92.485 163.917 92.4657Z" fill="#B2FD53"/>
<path d="M167.129 103.188C167.215 102.727 167.456 102.354 167.853 102.07C168.26 101.803 168.695 101.713 169.156 101.799C169.618 101.885 169.991 102.126 170.275 102.523C170.556 102.933 170.654 103.369 170.567 103.831C170.479 104.306 170.23 104.678 169.822 104.945C169.412 105.226 168.976 105.324 168.514 105.238C168.053 105.151 167.682 104.903 167.4 104.492C167.13 104.099 167.04 103.664 167.129 103.188ZM155.277 99.5424L166.09 101.562L165.569 104.352L154.756 102.332L155.277 99.5424Z" fill="#B2FD53"/>
<path d="M160.491 112.982L161.187 110.596L156.794 109.315C156.427 109.209 156.133 109.222 155.911 109.356C155.689 109.49 155.512 109.729 155.381 110.072C155.265 110.42 155.144 110.859 155.021 111.388L152.55 110.668C152.884 108.734 153.446 107.461 154.235 106.851C155.02 106.255 156.137 106.168 157.588 106.591L161.981 107.871L162.516 106.033L165.135 106.797L164.6 108.634L166.733 109.256L166.763 112.221L163.806 111.359L163.11 113.746L160.491 112.982Z" fill="#B2FD53"/>
<path d="M155.012 116.337C153.601 116.103 152.541 116.752 151.832 118.283C151.376 119.267 151.364 120.167 151.795 120.981L149.636 122.502C148.668 120.858 148.627 119.077 149.515 117.161C150.279 115.511 151.392 114.418 152.852 113.882C154.312 113.346 155.801 113.429 157.318 114.132C158.822 114.828 159.845 115.9 160.387 117.347C160.943 118.8 160.863 120.299 160.148 121.843C159.47 123.307 158.407 124.277 156.957 124.753C155.502 125.243 154.029 125.143 152.539 124.453C152.206 124.299 151.869 124.102 151.527 123.863L155.012 116.337ZM157.027 117.221L154.67 122.312C155.416 122.48 156.064 122.408 156.612 122.096C157.154 121.798 157.561 121.356 157.832 120.77C158.153 120.078 158.238 119.423 158.088 118.804C157.952 118.191 157.598 117.664 157.027 117.221Z" fill="#B2FD53"/>
<path d="M142.889 131.289C142.623 129.724 142.957 128.275 143.89 126.941C144.824 125.608 146.071 124.798 147.632 124.512C149.196 124.246 150.645 124.58 151.979 125.513C153.313 126.447 154.117 127.69 154.391 129.242C154.669 130.815 154.341 132.268 153.407 133.602C152.474 134.936 151.221 135.741 149.648 136.019C148.087 136.305 146.64 135.982 145.306 135.048C143.972 134.115 143.166 132.862 142.889 131.289ZM148.088 127.274C147.291 127.415 146.649 127.834 146.161 128.531C145.674 129.228 145.5 129.975 145.641 130.771C145.781 131.568 146.212 132.218 146.933 132.723C147.654 133.228 148.413 133.409 149.21 133.269C150.006 133.128 150.648 132.709 151.136 132.012C151.624 131.315 151.797 130.569 151.657 129.772C151.508 128.987 151.073 128.343 150.352 127.838C149.631 127.334 148.876 127.146 148.088 127.274Z" fill="#B2FD53"/>
<path d="M143.349 140.572C143.14 140.366 142.834 140.332 142.43 140.47C142.027 140.628 141.577 140.854 141.082 141.148C140.596 141.453 140.08 141.726 139.532 141.969C138.994 142.221 138.414 142.309 137.791 142.23C137.158 142.162 136.575 141.866 136.043 141.341C135.238 140.548 134.915 139.632 135.074 138.594C135.232 137.576 135.754 136.619 136.64 135.72C138.225 134.111 139.928 133.627 141.747 134.267L141.005 136.995C140.099 136.556 139.255 136.733 138.473 137.527C137.763 138.248 137.632 138.83 138.081 139.272C138.29 139.478 138.596 139.502 138.999 139.343C139.403 139.206 139.853 138.99 140.348 138.696C140.844 138.402 141.366 138.133 141.914 137.891C142.461 137.648 143.042 137.551 143.654 137.598C144.266 137.666 144.828 137.953 145.34 138.457C146.113 139.219 146.441 140.098 146.324 141.095C146.207 142.112 145.731 143.044 144.897 143.89C144.269 144.527 143.552 144.963 142.745 145.197C141.948 145.441 141.134 145.452 140.302 145.23L141.061 142.58C141.841 142.854 142.519 142.699 143.095 142.114C143.353 141.853 143.512 141.577 143.572 141.286C143.622 141.005 143.547 140.767 143.349 140.572Z" fill="#B2FD53"/>
<path d="M132.539 150.563L134.5 149.035L131.688 145.425C131.454 145.124 131.207 144.963 130.949 144.941C130.69 144.92 130.407 145.01 130.1 145.212C129.802 145.426 129.447 145.711 129.037 146.068L127.456 144.037C128.859 142.665 130.06 141.962 131.057 141.929C132.042 141.905 132.999 142.489 133.927 143.681L136.739 147.291L138.249 146.115L139.925 148.267L138.415 149.444L139.78 151.197L138.069 153.617L136.176 151.187L134.215 152.715L132.539 150.563Z" fill="#B2FD53"/>
<path d="M122.473 156.1C122.346 155.836 122.069 155.7 121.643 155.694C121.21 155.707 120.71 155.768 120.145 155.878C119.585 156.001 119.007 156.084 118.409 156.127C117.818 156.184 117.242 156.07 116.682 155.786C116.109 155.509 115.661 155.033 115.336 154.359C114.846 153.341 114.851 152.371 115.351 151.447C115.843 150.542 116.658 149.817 117.794 149.27C119.829 148.29 121.596 148.409 123.093 149.625L121.473 151.942C120.769 151.223 119.915 151.105 118.911 151.589C117.999 152.028 117.679 152.531 117.953 153.1C118.08 153.364 118.36 153.49 118.793 153.476C119.22 153.483 119.716 153.431 120.282 153.322C120.847 153.212 121.429 153.136 122.027 153.092C122.624 153.049 123.203 153.153 123.764 153.404C124.317 153.675 124.75 154.134 125.061 154.781C125.532 155.759 125.544 156.697 125.098 157.596C124.644 158.514 123.882 159.231 122.812 159.746C122.006 160.134 121.183 160.302 120.344 160.25C119.512 160.211 118.742 159.947 118.034 159.457L119.642 157.218C120.284 157.74 120.975 157.822 121.715 157.466C122.045 157.307 122.288 157.101 122.442 156.847C122.584 156.6 122.594 156.351 122.473 156.1Z" fill="#B2FD53"/>
<path d="M114.853 164.131C115.297 163.977 115.74 164.003 116.183 164.207C116.617 164.429 116.91 164.762 117.064 165.206C117.217 165.649 117.192 166.093 116.988 166.536C116.77 166.983 116.439 167.284 115.996 167.437C115.538 167.595 115.093 167.563 114.659 167.34C114.211 167.122 113.911 166.792 113.757 166.348C113.604 165.905 113.636 165.459 113.854 165.011C114.063 164.582 114.396 164.289 114.853 164.131ZM112.161 152.026L115.753 162.423L113.071 163.35L109.479 152.953L112.161 152.026Z" fill="#B2FD53"/>
<path d="M102.959 163.206L105.38 162.638L104.335 158.183C104.247 157.812 104.091 157.563 103.865 157.435C103.639 157.307 103.345 157.271 102.981 157.326C102.621 157.395 102.18 157.506 101.658 157.659L101.07 155.153C102.919 154.493 104.303 154.357 105.222 154.744C106.127 155.134 106.752 156.064 107.097 157.535L108.143 161.99L110.006 161.553L110.629 164.209L108.766 164.646L109.273 166.809L106.706 168.293L106.003 165.294L103.582 165.862L102.959 163.206Z" fill="#B2FD53"/>
<path d="M97.4615 160.07C96.9647 158.729 95.876 158.13 94.1954 158.273C93.114 158.365 92.3267 158.8 91.8335 159.578L89.4419 158.456C90.3903 156.801 91.9167 155.883 94.0211 155.704C95.8333 155.55 97.334 155.975 98.5232 156.977C99.7125 157.98 100.378 159.315 100.52 160.981C100.66 162.632 100.236 164.052 99.248 165.24C98.2611 166.442 96.92 167.116 95.2248 167.26C93.6172 167.397 92.2475 166.954 91.1154 165.931C89.9687 164.91 89.3258 163.581 89.1866 161.944C89.1555 161.579 89.1591 161.189 89.1974 160.773L97.4615 160.07ZM97.6918 162.259L92.102 162.734C92.3261 163.466 92.7095 163.993 93.2521 164.314C93.78 164.638 94.3655 164.772 95.0085 164.717C95.7684 164.652 96.38 164.402 96.8433 163.965C97.3079 163.543 97.5907 162.974 97.6918 162.259Z" fill="#B2FD53"/>
<path d="M78.0971 156.898C79.3285 155.897 80.7544 155.475 82.3749 155.632C83.9953 155.788 85.3139 156.476 86.3307 157.694C87.3315 158.925 87.7536 160.351 87.5969 161.972C87.4402 163.592 86.7534 164.904 85.5367 165.906C84.3039 166.921 82.8773 167.351 81.2568 167.194C79.6364 167.037 78.3185 166.342 77.3031 165.11C76.2863 163.891 75.8562 162.472 76.0129 160.852C76.1696 159.231 76.8643 157.913 78.0971 156.898ZM84.1496 159.45C83.6353 158.826 82.9548 158.473 82.108 158.391C81.2613 158.309 80.5258 158.525 79.9014 159.04C79.277 159.554 78.9224 160.249 78.8377 161.125C78.753 162.001 78.9678 162.751 79.4821 163.375C79.9964 164 80.6769 164.353 81.5236 164.435C82.3703 164.517 83.1059 164.3 83.7303 163.786C84.3401 163.27 84.6873 162.575 84.772 161.699C84.8567 160.823 84.6493 160.073 84.1496 159.45Z" fill="#B2FD53"/>
<path d="M70.3122 161.879C70.3889 161.596 70.2682 161.312 69.95 161.029C69.6138 160.755 69.196 160.475 68.6964 160.187C68.193 159.914 67.7011 159.599 67.2207 159.24C66.7365 158.896 66.3756 158.434 66.1379 157.853C65.8861 157.268 65.8581 156.615 66.0537 155.893C66.3491 154.803 66.9879 154.072 67.9701 153.7C68.9343 153.338 70.0251 153.322 71.2425 153.652C73.4225 154.243 74.6806 155.488 75.0169 157.387L72.2761 158.08C72.2141 157.076 71.6451 156.428 70.5692 156.136C69.5925 155.872 69.0216 156.044 68.8566 156.652C68.7799 156.935 68.9096 157.214 69.2458 157.487C69.564 157.771 69.9729 158.056 70.4725 158.344C70.972 158.631 71.462 158.954 71.9424 159.312C72.4228 159.67 72.7927 160.127 73.0522 160.684C73.2936 161.251 73.3204 161.881 73.1324 162.575C72.8485 163.622 72.2438 164.34 71.3182 164.727C70.3747 165.125 69.3296 165.168 68.183 164.858C67.3194 164.624 66.5875 164.213 65.9871 163.624C65.3829 163.05 64.9733 162.347 64.7584 161.514L67.4395 160.872C67.5836 161.687 68.052 162.201 68.8447 162.416C69.1986 162.512 69.517 162.514 69.7998 162.424C70.0685 162.33 70.2393 162.148 70.3122 161.879Z" fill="#B2FD53"/>
<path d="M56.3056 157.363L58.5988 158.322L60.3656 154.101C60.5128 153.75 60.5325 153.456 60.4246 153.22C60.3166 152.984 60.0992 152.781 59.7723 152.613C59.4398 152.458 59.0175 152.289 58.5056 152.106L59.4994 149.732C61.3838 150.282 62.5848 150.984 63.1024 151.836C63.6064 152.683 63.5668 153.804 62.9835 155.197L61.2167 159.418L62.9823 160.157L61.929 162.674L60.1634 161.935L59.3055 163.984L56.3563 163.68L57.5455 160.839L55.2522 159.879L56.3056 157.363Z" fill="#B2FD53"/>
<path d="M46.5905 151.323C46.7587 151.082 46.7413 150.775 46.5382 150.4C46.3147 150.029 46.0166 149.623 45.6441 149.183C45.2632 148.756 44.9075 148.292 44.577 147.792C44.2381 147.304 44.0554 146.747 44.0289 146.12C43.9904 145.484 44.1856 144.86 44.6145 144.247C45.262 143.322 46.1108 142.851 47.161 142.834C48.1907 142.82 49.2222 143.175 50.2557 143.898C52.1062 145.194 52.8675 146.791 52.5397 148.692L49.7263 148.415C50.0085 147.449 49.693 146.646 48.7798 146.007C47.9507 145.427 47.3553 145.395 46.9937 145.912C46.8255 146.152 46.8532 146.458 47.0767 146.829C47.2798 147.204 47.5676 147.612 47.9401 148.051C48.3126 148.491 48.6642 148.961 48.9946 149.461C49.3251 149.96 49.518 150.516 49.5733 151.128C49.6083 151.743 49.4197 152.345 49.0076 152.934C48.3853 153.823 47.5731 154.293 46.571 154.343C45.5485 154.397 44.5506 154.084 43.5773 153.403C42.8443 152.89 42.2951 152.255 41.9298 151.498C41.556 150.753 41.4094 149.952 41.4898 149.095L44.2293 149.402C44.0888 150.216 44.355 150.859 45.0279 151.33C45.3283 151.54 45.6269 151.651 45.9237 151.661C46.2085 151.664 46.4308 151.551 46.5905 151.323Z" fill="#B2FD53"/>
<path d="M35.8861 148.649C36.2378 148.959 36.4339 149.358 36.4744 149.844C36.4941 150.331 36.3486 150.75 36.0378 151.102C35.7271 151.454 35.3288 151.65 34.8429 151.69C34.3461 151.721 33.9218 151.581 33.5701 151.27C33.2074 150.95 33.0161 150.546 32.9964 150.059C32.9656 149.562 33.1056 149.138 33.4164 148.786C33.7271 148.434 34.1309 148.243 34.6278 148.212C35.1039 148.183 35.5234 148.328 35.8861 148.649ZM45.0983 140.348L37.8152 148.592L35.6884 146.713L42.9715 138.469L45.0983 140.348Z" fill="#B2FD53"/>
<path d="M30.8122 137.816L32.4984 139.643L35.8609 136.539C36.1411 136.28 36.2812 136.021 36.2812 135.762C36.2812 135.502 36.1676 135.228 35.9404 134.938C35.7025 134.659 35.3887 134.33 34.9991 133.951L36.8905 132.205C38.3752 133.489 39.1756 134.627 39.2917 135.617C39.3978 136.597 38.8959 137.6 37.7859 138.624L34.4234 141.728L35.7217 143.134L33.7171 144.985L32.4189 143.578L30.7862 145.086L28.2307 143.582L30.4939 141.493L28.8077 139.666L30.8122 137.816Z" fill="#B2FD53"/>
<path d="M30.8352 131.5C31.7581 130.408 31.7436 129.165 30.7918 127.773C30.1793 126.877 29.413 126.405 28.4931 126.359L28.2916 123.725C30.1996 123.736 31.7496 124.613 32.9415 126.356C33.9679 127.858 34.3374 129.373 34.0501 130.902C33.7628 132.43 32.929 133.667 31.5487 134.61C30.1805 135.546 28.7361 135.876 27.2155 135.6C25.6828 135.334 24.4364 134.498 23.4762 133.093C22.5658 131.761 22.2768 130.351 22.6093 128.862C22.9336 127.362 23.7737 126.148 25.1298 125.221C25.4325 125.014 25.774 124.825 26.1545 124.653L30.8352 131.5ZM29.0438 132.778L25.8778 128.147C25.3514 128.702 25.0816 129.295 25.0686 129.926C25.0474 130.545 25.2188 131.12 25.583 131.653C26.0134 132.283 26.5328 132.692 27.1411 132.88C27.7374 133.076 28.3716 133.042 29.0438 132.778Z" fill="#B2FD53"/>
<path d="M24.1742 113.339C25.6518 113.918 26.7216 114.95 27.3836 116.438C28.0457 117.925 28.0972 119.411 27.5381 120.896C26.9596 122.374 25.9268 123.444 24.4395 124.106C22.9521 124.768 21.4727 124.816 20.0011 124.251C18.5101 123.679 17.4335 122.649 16.7715 121.162C16.1094 119.674 16.0647 118.185 16.6371 116.694C17.1962 115.209 18.2194 114.136 19.7067 113.474C21.194 112.811 22.6832 112.767 24.1742 113.339ZM24.9351 119.864C25.2251 119.108 25.1971 118.342 24.8512 117.565C24.5052 116.788 23.9547 116.254 23.1995 115.964C22.4443 115.674 21.6648 115.708 20.8608 116.066C20.0569 116.424 19.5099 116.981 19.22 117.736C18.93 118.491 18.958 119.257 19.3039 120.034C19.6499 120.811 20.2004 121.345 20.9556 121.635C21.7048 121.912 22.4814 121.871 23.2853 121.513C24.0893 121.155 24.6392 120.605 24.9351 119.864Z" fill="#B2FD53"/>
<path d="M16.025 109.152C16.309 109.079 16.4955 108.833 16.5845 108.416C16.6557 107.989 16.6925 107.487 16.6948 106.911C16.6829 106.338 16.7137 105.755 16.787 105.16C16.8462 104.569 17.0694 104.026 17.4566 103.532C17.8401 103.024 18.394 102.676 19.1181 102.489C20.2114 102.206 21.1628 102.399 21.9723 103.068C22.7639 103.727 23.3177 104.666 23.6338 105.888C24.1997 108.074 23.7407 109.784 22.2568 111.016L20.2977 108.978C21.1398 108.427 21.4211 107.612 21.1419 106.532C20.8883 105.553 20.4563 105.142 19.8457 105.3C19.5617 105.373 19.3842 105.624 19.313 106.051C19.2239 106.468 19.1783 106.965 19.1759 107.541C19.1736 108.118 19.1357 108.703 19.0624 109.298C18.989 109.892 18.7748 110.44 18.4196 110.941C18.0466 111.432 17.5122 111.767 16.8165 111.947C15.7658 112.219 14.843 112.049 14.0482 111.436C13.2356 110.813 12.6804 109.927 12.3828 108.777C12.1586 107.911 12.1534 107.071 12.3673 106.258C12.5669 105.449 12.9755 104.745 13.5931 104.146L15.4773 106.158C14.8414 106.686 14.6263 107.348 14.8321 108.143C14.9239 108.498 15.0792 108.776 15.2979 108.977C15.5128 109.163 15.7552 109.222 16.025 109.152Z" fill="#B2FD53"/>
<path d="M13.0173 94.7586L13.3136 97.2269L17.857 96.6814C18.2356 96.636 18.5009 96.5081 18.6529 96.2978C18.8049 96.0876 18.8737 95.7986 18.8591 95.4311C18.8299 95.0653 18.7685 94.6147 18.6747 94.0794L21.2303 93.7726C21.6812 95.6832 21.6635 97.0739 21.1772 97.9447C20.6891 98.801 19.6951 99.3192 18.1952 99.4992L13.6519 100.045L13.88 101.945L11.1714 102.27L10.9433 100.37L8.73714 100.635L7.54699 97.9191L10.605 97.552L10.3087 95.0837L13.0173 94.7586Z" fill="#B2FD53"/>
<path d="M13.44 82.9689C13.732 82.9971 13.9912 82.8306 14.2177 82.4694C14.431 82.0922 14.6374 81.6333 14.8371 81.0926C15.0221 80.5506 15.2509 80.0128 15.5235 79.4792C15.7816 78.9442 16.1771 78.511 16.7101 78.1794C17.2446 77.8332 17.8841 77.6961 18.6286 77.7681C19.7527 77.8768 20.5804 78.3842 21.1117 79.2902C21.6297 80.1802 21.8281 81.2529 21.7067 82.5084C21.4893 84.7566 20.4724 86.2054 18.6562 86.855L17.5138 84.269C18.4937 84.0396 19.0373 83.3701 19.1446 82.2607C19.242 81.2534 18.9769 80.7193 18.3491 80.6586C18.0572 80.6304 17.8045 80.8049 17.5912 81.1821C17.3647 81.5433 17.1517 81.9943 16.9521 82.5349C16.7524 83.0755 16.5163 83.6126 16.2437 84.1462C15.9711 84.6798 15.5821 85.121 15.0768 85.47C14.5584 85.803 13.9415 85.9349 13.2262 85.8657C12.1459 85.7613 11.3373 85.2852 10.8004 84.4376C10.2503 83.574 10.0324 82.551 10.1467 81.3685C10.2328 80.478 10.5156 79.6875 10.9949 78.9971C11.4597 78.3053 12.0848 77.7837 12.8702 77.4323L13.9512 79.9681C13.1728 80.2465 12.744 80.7945 12.665 81.612C12.6297 81.9769 12.6803 82.2913 12.8169 82.555C12.9549 82.8041 13.1626 82.9421 13.44 82.9689Z" fill="#B2FD53"/>
<path d="M10.5111 72.192C10.4126 72.6509 10.1615 73.017 9.75787 73.2904C9.34292 73.5464 8.90601 73.6251 8.44712 73.5267C7.98824 73.4282 7.6221 73.1771 7.34871 72.7734C7.0784 72.3554 6.99248 71.917 7.09095 71.4581C7.1925 70.9849 7.45075 70.6203 7.86569 70.3643C8.28371 70.094 8.72216 70.0081 9.18105 70.1065C9.63993 70.205 10.0045 70.4632 10.2748 70.8813C10.5339 71.2819 10.6126 71.7188 10.5111 72.192ZM22.2615 76.1536L11.5063 73.8456L12.1017 71.0708L22.8569 73.3787L22.2615 76.1536Z" fill="#B2FD53"/>
<path d="M17.3704 62.6894L16.612 65.0568L20.9698 66.453C21.3329 66.5693 21.6274 66.5636 21.8532 66.4357C22.079 66.3078 22.2617 66.0737 22.4016 65.7335C22.5274 65.3888 22.6591 64.9536 22.7968 64.4278L25.248 65.2132C24.8624 67.1379 24.2672 68.3949 23.4624 68.9842C22.662 69.5594 21.5425 69.6166 20.1039 69.1557L15.7461 67.7595L15.1621 69.5823L12.5642 68.75L13.1482 66.9272L11.0321 66.2493L11.0809 63.2848L14.014 64.2245L14.7725 61.8571L17.3704 62.6894Z" fill="#B2FD53"/>
<path d="M22.9527 59.4159C24.3574 59.6858 25.4339 59.065 26.1822 57.5534C26.6638 56.5808 26.6996 55.682 26.2896 54.8572L28.4877 53.3924C29.4126 55.0613 29.4065 56.8421 28.4695 58.7349C27.6626 60.3648 26.5223 61.4286 25.0484 61.9263C23.5746 62.4241 22.0884 62.3021 20.59 61.5603C19.1047 60.825 18.1099 59.7269 17.6057 58.2662C17.0882 56.799 17.2069 55.3031 17.9618 53.7784C18.6776 52.3325 19.7659 51.3902 21.2269 50.9515C22.6944 50.4997 24.1642 50.6382 25.6363 51.367C25.9649 51.5297 26.297 51.735 26.6325 51.9829L22.9527 59.4159ZM20.9615 58.4793L23.4505 53.4516C22.7086 53.2644 22.0594 53.3194 21.5031 53.6168C20.9532 53.901 20.5352 54.3323 20.2488 54.9106C19.9105 55.5941 19.8081 56.2471 19.9418 56.8697C20.0623 57.4858 20.4022 58.0223 20.9615 58.4793Z" fill="#B2FD53"/>
<path d="M35.5263 44.7087C35.7462 46.2802 35.3701 47.7189 34.3981 49.0249C33.4261 50.3308 32.1558 51.104 30.5873 51.3444C29.0159 51.5643 27.5772 51.1882 26.2712 50.2162C24.9652 49.2441 24.1979 47.9783 23.9693 46.4186C23.7377 44.8383 24.1078 43.3952 25.0799 42.0893C26.0519 40.7833 27.328 40.0145 28.9083 39.7829C30.4767 39.5425 31.914 39.9083 33.2199 40.8803C34.5259 41.8523 35.2947 43.1285 35.5263 44.7087ZM30.212 48.5694C31.0124 48.452 31.6665 48.0522 32.1744 47.3698C32.6823 46.6874 32.8776 45.946 32.7603 45.1456C32.643 44.3452 32.2314 43.6823 31.5254 43.1569C30.8195 42.6315 30.0663 42.4274 29.266 42.5448C28.4656 42.6621 27.8115 43.062 27.3035 43.7444C26.7956 44.4267 26.6003 45.1681 26.7177 45.9685C26.8438 46.7571 27.2598 47.4141 27.9657 47.9396C28.6716 48.465 29.4204 48.6749 30.212 48.5694Z" fill="#B2FD53"/>
<path d="M35.0797 35.637C35.2833 35.8482 35.5886 35.89 35.9954 35.7626C36.4026 35.6144 36.8577 35.3997 37.3607 35.1184C37.8536 34.8265 38.3769 34.5663 38.9308 34.3378C39.4745 34.0988 40.0567 34.0264 40.6774 34.1206C41.3086 34.2047 41.8838 34.516 42.403 35.0544C43.1869 35.8673 43.4865 36.7907 43.3018 37.8246C43.1174 38.8378 42.5712 39.7822 41.6633 40.6577C40.0374 42.2256 38.3231 42.6664 36.5204 41.9801L37.3319 39.2721C38.226 39.7343 39.0742 39.5786 39.8765 38.8049C40.605 38.1024 40.7504 37.5242 40.3126 37.0702C40.109 36.859 39.8036 36.8276 39.3963 36.9757C38.9895 37.1032 38.5346 37.3076 38.0316 37.5889C37.5286 37.8702 37.0001 38.1251 36.4462 38.3536C35.8923 38.5821 35.3099 38.6648 34.6991 38.6019C34.0886 38.5182 33.534 38.2177 33.0351 37.7004C32.2817 36.9191 31.9763 36.0319 32.1188 35.0387C32.2617 34.0248 32.7608 33.1055 33.6159 32.2808C34.2599 31.6598 34.9884 31.2426 35.8013 31.0292C36.6041 30.8052 37.4182 30.8148 38.2436 31.058L37.4178 33.688C36.6452 33.3939 35.9633 33.5319 35.3721 34.102C35.1082 34.3565 34.9424 34.6284 34.875 34.9176C34.818 35.1966 34.8863 35.4365 35.0797 35.637Z" fill="#B2FD53"/>
<path d="M46.3572 25.747L44.3522 27.2167L47.0575 30.9074C47.283 31.215 47.5246 31.3833 47.7825 31.4126C48.0403 31.4418 48.3257 31.3599 48.6388 31.1667C48.9432 30.9618 49.3056 30.6871 49.7259 30.3426L51.2476 32.4186C49.8044 33.7493 48.5841 34.4165 47.5867 34.4202C46.6011 34.4153 45.6617 33.8036 44.7686 32.5852L42.0633 28.8946L40.5196 30.0261L38.9068 27.8259L40.4505 26.6944L39.1369 24.9023L40.9185 22.5324L42.7394 25.0165L44.7445 23.5468L46.3572 25.747Z" fill="#B2FD53"/>
<path d="M56.0749 20.6912C56.1951 20.9587 56.4683 21.1013 56.8943 21.1188C57.3276 21.1169 57.8285 21.0686 58.397 20.9738C58.9594 20.8657 59.5399 20.7977 60.1385 20.7698C60.731 20.7285 61.3034 20.8571 61.8557 21.1555C62.4213 21.448 62.8575 21.9353 63.1642 22.6175C63.6273 23.6475 63.5973 24.6179 63.074 25.5285C62.5581 26.4198 61.7249 27.124 60.5745 27.6412C58.5145 28.5674 56.7521 28.403 55.2873 27.148L56.9662 24.8735C57.6515 25.6106 58.5024 25.7507 59.519 25.2936C60.442 24.8786 60.7742 24.3835 60.5156 23.8083C60.3953 23.5408 60.1185 23.4079 59.6852 23.4098C59.2592 23.3923 58.762 23.4309 58.1935 23.5257C57.625 23.6205 57.0415 23.6818 56.443 23.7097C55.8445 23.7376 55.2684 23.6187 54.7148 23.353C54.1685 23.0679 53.748 22.5977 53.4533 21.9422C53.0083 20.9523 53.0206 20.0141 53.4904 19.1275C53.9675 18.2215 54.7478 17.5249 55.8313 17.0378C56.6473 16.6709 57.4739 16.5244 58.3112 16.5982C59.1424 16.6587 59.9053 16.9428 60.6 17.4506L58.9341 19.6469C58.3063 19.109 57.6179 19.0085 56.8688 19.3453C56.5343 19.4956 56.2865 19.6955 56.1253 19.9449C55.9774 20.1883 55.9606 20.437 56.0749 20.6912Z" fill="#B2FD53"/>
<path d="M64.1483 12.7249C63.7008 12.8664 63.2584 12.8294 62.8211 12.6139C62.3933 12.3799 62.1087 12.0392 61.9672 11.5917C61.8257 11.1443 61.8627 10.7018 62.0782 10.2645C62.3076 9.82277 62.6461 9.53114 63.0936 9.38964C63.5551 9.24371 63.9997 9.28771 64.4275 9.52162C64.8692 9.75111 65.1609 10.0896 65.3024 10.5371C65.4439 10.9846 65.3999 11.4292 65.1704 11.871C64.9505 12.2943 64.6098 12.5789 64.1483 12.7249ZM66.5203 24.8961L63.2038 14.408L65.9097 13.5523L69.2263 24.0404L66.5203 24.8961Z" fill="#B2FD53"/>
<path d="M75.701 13.9942L73.2683 14.5065L74.2113 18.9842C74.2899 19.3574 74.4406 19.6104 74.6635 19.7434C74.8863 19.8763 75.1802 19.9193 75.545 19.8725C75.9068 19.8113 76.3502 19.7104 76.8752 19.5698L77.4057 22.0886C75.5422 22.7059 74.1553 22.8106 73.2451 22.4028C72.3492 21.9919 71.7456 21.0473 71.4343 19.5691L70.4912 15.0913L68.6183 15.4858L68.0561 12.8163L69.929 12.4219L69.4711 10.2476L72.0714 8.82314L72.7061 11.837L75.1388 11.3247L75.701 13.9942Z" fill="#B2FD53"/>
<path d="M81.5713 17.1763C82.0318 18.5306 83.1039 19.1589 84.7878 19.0614C85.8713 18.9986 86.67 18.585 87.184 17.8207L89.5445 19.0061C88.5518 20.6356 87.0012 21.5114 84.8927 21.6336C83.0771 21.7388 81.5884 21.2741 80.4266 20.2396C79.2648 19.2051 78.6356 17.8532 78.5389 16.184C78.443 14.5294 78.905 13.1217 79.9249 11.9608C80.9439 10.7852 82.3027 10.1482 84.0012 10.0498C85.6118 9.95645 86.9691 10.4361 88.0732 11.4886C89.1919 12.5404 89.7988 13.8862 89.8938 15.5261C89.915 15.8921 89.9009 16.2823 89.8514 16.6965L81.5713 17.1763ZM81.4001 14.9825L87.0007 14.658C86.7964 13.9206 86.4274 13.3837 85.8937 13.0473C85.3747 12.7101 84.793 12.5602 84.1488 12.5975C83.3874 12.6416 82.7692 12.8758 82.2943 13.2999C81.8185 13.7095 81.5205 14.2703 81.4001 14.9825Z" fill="#B2FD53"/>
<path d="M100.759 20.8306C99.5012 21.7979 98.0645 22.1814 96.4489 21.9812C94.8332 21.7809 93.5336 21.0582 92.5499 19.8131C91.5826 18.5552 91.1991 17.1185 91.3994 15.5028C91.5996 13.8872 92.3214 12.5948 93.5647 11.6258C94.8244 10.6439 96.262 10.2531 97.8777 10.4534C99.4933 10.6536 100.792 11.3836 101.774 12.6432C102.758 13.8884 103.149 15.3187 102.949 16.9344C102.749 18.55 102.019 19.8487 100.759 20.8306ZM94.7776 18.1162C95.2749 18.7542 95.9456 19.1256 96.7898 19.2302C97.634 19.3348 98.3751 19.1385 99.0132 18.6412C99.6512 18.1439 100.024 17.4586 100.133 16.5853C100.241 15.712 100.046 14.9563 99.549 14.3183C99.0517 13.6803 98.3809 13.3089 97.5367 13.2043C96.6925 13.0997 95.9514 13.296 95.3134 13.7933C94.6899 14.2924 94.3241 14.9786 94.2158 15.8519C94.1076 16.7253 94.2948 17.48 94.7776 18.1162Z" fill="#B2FD53"/>
<path d="M108.733 16.0444C108.649 16.3254 108.762 16.6119 109.073 16.904C109.402 17.1863 109.812 17.4777 110.304 17.7782C110.8 18.0646 111.283 18.3932 111.754 18.7639C112.229 19.1206 112.577 19.5925 112.799 20.1796C113.036 20.771 113.046 21.4249 112.832 22.1414C112.507 23.2232 111.85 23.9371 110.858 24.283C109.884 24.619 108.794 24.606 107.585 24.2439C105.422 23.5956 104.197 22.3176 103.911 20.4099L106.669 19.7896C106.705 20.7954 107.256 21.4583 108.324 21.7783C109.294 22.0688 109.869 21.912 110.05 21.3078C110.134 21.0268 110.012 20.7452 109.683 20.463C109.372 20.1708 108.971 19.8746 108.479 19.5741C107.988 19.2736 107.506 18.938 107.036 18.5673C106.565 18.1965 106.207 17.7295 105.963 17.1663C105.736 16.5932 105.726 15.9624 105.933 15.274C106.244 14.2344 106.868 13.5332 107.803 13.1704C108.757 12.7979 109.803 12.7821 110.941 13.1231C111.798 13.3799 112.519 13.8103 113.103 14.4142C113.692 15.004 114.083 15.7183 114.276 16.5569L111.578 17.1266C111.456 16.3091 111.001 15.7824 110.215 15.5467C109.863 15.4414 109.545 15.4303 109.26 15.5132C108.989 15.6004 108.813 15.7775 108.733 16.0444Z" fill="#B2FD53"/>
<path d="M122.26 20.7523L119.993 19.7329L118.116 23.9064C117.96 24.2542 117.932 24.5475 118.034 24.7862C118.136 25.0249 118.348 25.2328 118.67 25.4099C118.999 25.5737 119.416 25.7534 119.923 25.9492L118.868 28.2968C116.999 27.6976 115.816 26.965 115.321 26.0992C114.839 25.2393 114.908 24.1205 115.528 22.7427L117.404 18.5691L115.658 17.7843L116.777 15.2962L118.523 16.081L119.434 14.0544L122.374 14.4356L121.111 17.2448L123.379 18.2642L122.26 20.7523Z" fill="#B2FD53"/>
<path d="M131.922 26.9974C131.748 27.2333 131.758 27.5412 131.951 27.9212C132.165 28.298 132.452 28.711 132.814 29.1601C133.184 29.5974 133.527 30.0701 133.845 30.5782C134.171 31.0745 134.34 31.6365 134.35 32.2642C134.372 32.9005 134.161 33.5196 133.717 34.1212C133.046 35.0296 132.185 35.4789 131.135 35.4689C130.105 35.4559 129.083 35.0747 128.068 34.3253C126.252 32.9833 125.531 31.3664 125.908 29.4746L128.713 29.8237C128.406 30.7822 128.701 31.5926 129.598 32.2549C130.412 32.8561 131.006 32.9031 131.381 32.3959C131.555 32.1599 131.535 31.8535 131.321 31.4767C131.128 31.0967 130.851 30.6822 130.489 30.2331C130.128 29.784 129.789 29.3054 129.471 28.7973C129.154 28.2892 128.975 27.7288 128.935 27.116C128.916 26.5001 129.12 25.9031 129.547 25.3251C130.192 24.4521 131.016 24.0031 132.019 23.9782C133.043 23.9502 134.032 24.2891 134.988 24.9949C135.707 25.5265 136.24 26.1753 136.586 26.9413C136.941 27.6955 137.067 28.4998 136.964 29.3542L134.234 28.9781C134.395 28.1673 134.145 27.5179 133.484 27.0299C133.19 26.8121 132.894 26.694 132.597 26.6756C132.313 26.666 132.088 26.7732 131.922 26.9974Z" fill="#B2FD53"/>
<path d="M142.615 29.9395C142.271 29.6199 142.085 29.2167 142.057 28.73C142.05 28.2425 142.206 27.8269 142.526 27.4832C142.845 27.1395 143.248 26.9536 143.735 26.9255C144.233 26.9075 144.653 27.0582 144.997 27.3778C145.351 27.7074 145.532 28.1159 145.54 28.6034C145.558 29.1009 145.407 29.5215 145.087 29.8652C144.768 30.2089 144.359 30.3898 143.862 30.4079C143.385 30.4252 142.969 30.2691 142.615 29.9395ZM133.195 38.003L140.685 29.9474L142.763 31.8799L135.273 39.9355L133.195 38.003Z" fill="#B2FD53"/>
<path d="M147.615 41.0783L145.976 39.2092L142.536 42.2265C142.249 42.4779 142.102 42.7334 142.096 42.9928C142.089 43.2522 142.196 43.5294 142.415 43.8244C142.646 44.1097 142.951 44.4467 143.331 44.8353L141.396 46.5326C139.944 45.2111 139.173 44.0537 139.082 43.0604C139.001 42.0781 139.529 41.0889 140.664 40.0928L144.105 37.0756L142.843 35.6366L144.894 33.8378L146.156 35.2768L147.826 33.8117L150.343 35.3796L148.027 37.4105L149.666 39.2795L147.615 41.0783Z" fill="#B2FD53"/>
<path d="M147.441 47.3876C146.49 48.4564 146.473 49.699 147.388 51.1154C147.978 52.0267 148.732 52.5174 149.65 52.5872L149.784 55.2252C147.877 55.166 146.35 54.2496 145.203 52.4761C144.215 50.9489 143.885 49.4248 144.211 47.9038C144.538 46.3828 145.403 45.1683 146.807 44.2604C148.199 43.3605 149.651 43.0676 151.164 43.3817C152.69 43.6878 153.914 44.5552 154.838 45.9839C155.714 47.3387 155.967 48.7559 155.596 50.2356C155.233 51.7276 154.362 52.9196 152.983 53.8116C152.675 54.0107 152.329 54.1909 151.944 54.3524L147.441 47.3876ZM149.264 46.156L152.31 50.867C152.851 50.3253 153.136 49.7394 153.165 49.1093C153.202 48.4914 153.045 47.9115 152.695 47.3696C152.281 46.7292 151.772 46.3071 151.169 46.1034C150.578 45.8917 149.943 45.9093 149.264 46.156Z" fill="#B2FD53"/>
<path d="M153.671 65.781C152.209 65.1641 151.167 64.1037 150.544 62.5996C149.921 61.0955 149.908 59.6085 150.506 58.1386C151.123 56.6766 152.183 55.6341 153.688 55.0111C155.192 54.3882 156.672 54.3783 158.128 54.9816C159.604 55.5929 160.653 56.6505 161.276 58.1546C161.899 59.6587 161.905 61.1485 161.294 62.624C160.696 64.094 159.645 65.1404 158.141 65.7634C156.637 66.3863 155.147 66.3922 153.671 65.781ZM153.081 59.2389C152.772 59.9863 152.78 60.7529 153.105 61.5388C153.431 62.3248 153.967 62.8725 154.714 63.1821C155.462 63.4917 156.242 63.4781 157.055 63.1414C157.868 62.8046 158.429 62.2626 158.739 61.5152C159.048 60.7679 159.04 60.0013 158.715 59.2153C158.389 58.4294 157.853 57.8817 157.106 57.5721C156.364 57.276 155.587 57.2964 154.773 57.6331C153.96 57.9699 153.396 58.5051 153.081 59.2389Z" fill="#B2FD53"/>
<path d="M161.703 70.1436C161.417 70.2096 161.224 70.4497 161.124 70.8641C161.041 71.2896 160.991 71.7903 160.974 72.3663C160.97 72.9391 160.924 73.5217 160.835 74.1142C160.76 74.7034 160.522 75.2399 160.122 75.7235C159.725 76.2214 159.162 76.5544 158.433 76.7225C157.333 76.9762 156.387 76.7579 155.596 76.0674C154.822 75.3878 154.293 74.4336 154.01 73.2045C153.502 71.0036 154.007 69.3069 155.523 68.1144L157.427 70.2039C156.571 70.7326 156.268 71.5399 156.518 72.6261C156.745 73.6122 157.166 74.0344 157.781 73.8927C158.067 73.8268 158.251 73.5812 158.333 73.1557C158.434 72.7413 158.492 72.2461 158.51 71.67C158.528 71.094 158.581 70.5097 158.67 69.9172C158.76 69.3247 158.988 68.7828 159.357 68.2915C159.743 67.8111 160.286 67.4902 160.986 67.3287C162.044 67.0849 162.961 67.2796 163.74 67.9129C164.535 68.5573 165.067 69.4582 165.334 70.6159C165.535 71.4877 165.518 72.327 165.282 73.1338C165.061 73.9374 164.634 74.6304 164.001 75.213L162.171 73.1514C162.82 72.6404 163.053 71.9847 162.868 71.1843C162.786 70.8271 162.638 70.5451 162.425 70.3383C162.215 70.1459 161.974 70.081 161.703 70.1436Z" fill="#B2FD53"/>
<path d="M164.345 84.7006L164.116 82.2252L159.559 82.6481C159.179 82.6834 158.911 82.8041 158.753 83.0102C158.596 83.2163 158.519 83.5033 158.524 83.8711C158.543 84.2375 158.592 84.6896 158.672 85.2272L156.109 85.4651C155.709 83.5431 155.765 82.1534 156.274 81.296C156.785 80.4531 157.793 79.9619 159.297 79.8223L163.853 79.3994L163.676 77.4936L166.393 77.2415L166.57 79.1473L168.782 78.9419L169.899 81.6885L166.832 81.9731L167.062 84.4485L164.345 84.7006Z" fill="#B2FD53"/>
</svg>
