<svg width="33" height="33" viewBox="0 0 33 33" fill="none" xmlns="http://www.w3.org/2000/svg">
<rect width="33" height="33" rx="16.5" fill="#7360F2"/>
<path d="M12.4941 12.6397C12.6069 12.5269 12.9879 12.2317 12.9879 12.2317C13.0534 12.1782 13.1289 12.1382 13.21 12.1143C13.2912 12.0904 13.3763 12.083 13.4603 12.0925C13.5444 12.102 13.6256 12.1282 13.6994 12.1697C13.7731 12.2111 13.8378 12.2669 13.8896 12.3337L14.7592 13.4394C14.8566 13.5658 14.9057 13.7227 14.8979 13.8821C14.89 14.0414 14.8256 14.1927 14.7162 14.3089L14.3029 14.7437C14.245 14.8015 14.2051 14.8748 14.188 14.9548C14.1708 15.0348 14.1772 15.118 14.2063 15.1945C14.3847 15.6728 14.6484 16.1147 14.9846 16.4988C15.4009 16.8915 15.8579 17.2388 16.3479 17.5347C16.4622 17.6002 16.5947 17.6268 16.7255 17.6103C16.8562 17.5939 16.978 17.5353 17.0725 17.4434L17.4589 17.0731C17.5563 16.9673 17.6884 16.9 17.8312 16.8832C17.9739 16.8665 18.118 16.9015 18.2372 16.9818L19.3804 17.744C19.4595 17.7971 19.5269 17.8657 19.5786 17.9456C19.6304 18.0256 19.6653 18.1152 19.6814 18.209C19.6974 18.3029 19.6943 18.399 19.6721 18.4916C19.6499 18.5842 19.6091 18.6713 19.5522 18.7477L19.3482 19.0268C19.1473 19.2957 18.859 19.4863 18.5328 19.5656C18.2066 19.645 17.8629 19.6082 17.5609 19.4615C16.4228 18.9572 15.3805 18.2599 14.4801 17.4005C13.7726 16.5902 13.1537 15.7067 12.6337 14.7651L12.2043 13.8419C12.1313 13.6836 12.1047 13.5078 12.1275 13.3349C12.1503 13.162 12.2216 12.9991 12.3331 12.8651C12.3804 12.7856 12.4343 12.7102 12.4941 12.6397ZM18.9349 15.5756C18.9349 15.5004 18.9349 15.4307 18.9349 15.3555C18.935 14.6484 18.6559 13.9698 18.1584 13.4673C17.6609 12.9648 16.9852 12.6789 16.2781 12.6719H16.16C16.1235 12.6746 16.0893 12.691 16.0644 12.7179C16.0395 12.7448 16.0257 12.7801 16.0258 12.8168C16.0265 12.8356 16.031 12.8541 16.039 12.8711C16.047 12.8881 16.0583 12.9034 16.0724 12.9159C16.0864 12.9285 16.1028 12.938 16.1207 12.944C16.1385 12.9501 16.1574 12.9524 16.1761 12.951H16.2781C16.9083 12.9524 17.5123 13.2033 17.9579 13.6489C18.4035 14.0946 18.6544 14.6985 18.6558 15.3287C18.6558 15.3931 18.6558 15.4629 18.6558 15.5273C18.6544 15.5456 18.6566 15.5641 18.6622 15.5816C18.6679 15.5991 18.677 15.6152 18.689 15.6292C18.701 15.6432 18.7156 15.6546 18.732 15.6629C18.7484 15.6712 18.7663 15.6762 18.7847 15.6776C18.816 15.6787 18.8468 15.6693 18.8721 15.6508C18.8974 15.6323 18.9158 15.6058 18.9242 15.5756H18.9349ZM17.9205 15.2589C17.9257 15.1982 17.9257 15.1371 17.9205 15.0764C17.9191 14.6982 17.7682 14.3359 17.5008 14.0684C17.2333 13.801 16.871 13.6501 16.4928 13.6487H16.4016C16.3646 13.654 16.3309 13.6729 16.3071 13.7017C16.2833 13.7304 16.271 13.7671 16.2727 13.8044C16.2747 13.8227 16.2804 13.8405 16.2893 13.8567C16.2982 13.8729 16.3103 13.8871 16.3248 13.8986C16.3392 13.9101 16.3559 13.9186 16.3737 13.9236C16.3914 13.9286 16.4101 13.9301 16.4284 13.9278H16.4928C16.6434 13.9278 16.7925 13.9576 16.9316 14.0154C17.0706 14.0731 17.1969 14.1578 17.3031 14.2646C17.4093 14.3713 17.4934 14.498 17.5506 14.6373C17.6077 14.7766 17.6368 14.9258 17.6361 15.0764C17.6387 15.1247 17.6387 15.1731 17.6361 15.2213C17.633 15.2397 17.6337 15.2585 17.638 15.2766C17.6423 15.2947 17.6502 15.3117 17.6612 15.3267C17.6722 15.3417 17.6861 15.3544 17.702 15.3639C17.718 15.3735 17.7357 15.3798 17.7541 15.3824C17.7725 15.3846 17.7911 15.3832 17.8089 15.3782C17.8267 15.3732 17.8433 15.3647 17.8578 15.3532C17.8722 15.3417 17.8843 15.3274 17.8932 15.3113C17.9022 15.2951 17.9078 15.2773 17.9098 15.2589H17.9205ZM19.8474 15.8762C19.8474 15.742 19.8474 15.6024 19.8474 15.4682C19.8433 14.4691 19.4475 13.5114 18.745 12.8008C18.0425 12.0903 17.0893 11.6836 16.0903 11.6682H15.8756C15.8575 11.6688 15.8397 11.6732 15.8233 11.6809C15.8069 11.6886 15.7922 11.6996 15.7802 11.7131C15.7682 11.7267 15.759 11.7425 15.7532 11.7597C15.7475 11.7769 15.7453 11.795 15.7467 11.8131C15.7495 11.8496 15.7659 11.8838 15.7928 11.9087C15.8197 11.9336 15.855 11.9474 15.8917 11.9473H16.0903C17.026 11.9473 17.9235 12.3186 18.5857 12.9798C19.2478 13.6409 19.6205 14.5379 19.622 15.4736C19.622 15.5971 19.622 15.7259 19.622 15.8547C19.6197 15.8727 19.6212 15.8911 19.6263 15.9085C19.6313 15.926 19.6399 15.9423 19.6515 15.9563C19.663 15.9704 19.6773 15.9819 19.6934 15.9903C19.7096 15.9987 19.7273 16.0037 19.7454 16.005C19.7735 15.9964 19.7982 15.9794 19.8164 15.9564C19.8346 15.9334 19.8454 15.9054 19.8474 15.8762ZM17.8937 15.2589C17.8989 15.1982 17.8989 15.1371 17.8937 15.0764C17.8923 14.6982 17.7414 14.3359 17.474 14.0684C17.2065 13.801 16.8442 13.6501 16.466 13.6487H16.3747C16.3378 13.654 16.3041 13.6729 16.2803 13.7017C16.2564 13.7304 16.2442 13.7671 16.2459 13.8044C16.2479 13.8227 16.2535 13.8405 16.2625 13.8567C16.2714 13.8729 16.2834 13.8871 16.2979 13.8986C16.3124 13.9101 16.329 13.9186 16.3468 13.9236C16.3646 13.9286 16.3832 13.9301 16.4016 13.9278H16.466C16.6166 13.9278 16.7657 13.9576 16.9047 14.0154C17.0438 14.0731 17.17 14.1578 17.2763 14.2646C17.3825 14.3713 17.4666 14.498 17.5237 14.6373C17.5809 14.7766 17.6099 14.9258 17.6092 15.0764C17.6119 15.1247 17.6119 15.1731 17.6092 15.2213C17.6062 15.2397 17.6068 15.2585 17.6111 15.2766C17.6155 15.2947 17.6233 15.3117 17.6343 15.3267C17.6454 15.3417 17.6592 15.3544 17.6752 15.3639C17.6912 15.3735 17.7089 15.3798 17.7273 15.3824C17.7475 15.389 17.7689 15.3908 17.79 15.3879C17.811 15.3849 17.8311 15.3772 17.8487 15.3653C17.8663 15.3534 17.881 15.3376 17.8916 15.3192C17.9022 15.3007 17.9084 15.2801 17.9098 15.2589H17.8937ZM23.1698 14.2606L23.1161 17.4005C23.1161 20.2452 20.529 22.1559 17.6844 22.1559H14.9148L13.4871 23.7984C13.404 23.8896 13.2954 23.9539 13.1755 23.9828C13.0555 24.0117 12.9296 24.004 12.814 23.9607C12.6984 23.9174 12.5985 23.8404 12.5272 23.7397C12.4558 23.639 12.4162 23.5192 12.4136 23.3958V21.7856C11.4217 21.4219 10.5639 20.765 9.95418 19.9022C9.34445 19.0393 9.01166 18.0114 9 16.955V14.3518C9 11.373 10.7229 9.19919 14.3351 9.0167C15.0919 8.97913 17.3731 9.0167 17.3731 9.0167C21.1409 8.98449 23.1859 11.1583 23.1859 14.2606H23.1698ZM22.1285 14.4968C22.0963 11.6038 20.3841 10.058 17.1637 10.058C17.1637 10.058 15.2315 10.058 14.5874 10.058C11.5065 10.2082 10.0949 12.0653 10.0949 14.5343V16.7296C10.0618 17.6146 10.3135 18.4869 10.813 19.2183C11.3125 19.9497 12.0334 20.5015 12.8699 20.7926V23.4065C12.8686 23.4314 12.8753 23.4559 12.8889 23.4767C12.9024 23.4976 12.9222 23.5136 12.9454 23.5225C12.9686 23.5314 12.994 23.5328 13.018 23.5264C13.042 23.5201 13.0634 23.5063 13.0792 23.4871L14.2493 22.1345L15.2154 21.0181H17.475C20.0889 21.0181 22.107 19.4079 22.107 17.0731L22.1285 14.4968Z" fill="white"/>
</svg>
