<svg width="33" height="33" viewBox="0 0 33 33" fill="none" xmlns="http://www.w3.org/2000/svg">
<rect width="33" height="33" rx="16.5" fill="#51C85D"/>
<g clip-path="url(#clip0_2_3056)">
<path d="M23.6604 16.0838C23.6428 17.9413 23.1653 19.3944 22.1721 20.6571C21.1057 22.0135 19.717 22.8749 18.0178 23.2235C16.7053 23.4901 15.4279 23.3729 14.174 22.9188C13.8957 22.8163 13.6233 22.6962 13.3625 22.5526C13.2834 22.5087 13.216 22.5028 13.1281 22.5321C11.9416 22.9159 10.7522 23.2967 9.56271 23.6747C9.50998 23.6922 9.43967 23.7421 9.39865 23.704C9.35177 23.6571 9.41037 23.5868 9.42795 23.5311C9.66525 22.8251 9.90256 22.1161 10.1428 21.41C10.2893 20.9794 10.4299 20.5516 10.5822 20.1239C10.6233 20.0126 10.6086 19.9276 10.5471 19.8251C10.2453 19.3094 10.0227 18.7587 9.86447 18.1815C9.56857 17.0975 9.53634 16.0018 9.76779 14.9061C10.0197 13.7108 10.5471 12.6444 11.3586 11.7245C12.3401 10.6112 13.55 9.87584 14.9885 9.52135C15.9055 9.29576 16.8313 9.26061 17.7629 9.41295C18.9817 9.61217 20.0803 10.0956 21.0383 10.8749C22.0344 11.6864 22.761 12.6942 23.218 13.9042C23.4699 14.5575 23.6692 15.6268 23.6604 16.0838ZM11.1858 21.9344C11.9123 21.7001 12.6067 21.4774 13.2951 21.2518C13.386 21.2225 13.4592 21.2284 13.5383 21.2811C13.802 21.4569 14.0861 21.5975 14.3791 21.7206C15.3313 22.1249 16.3215 22.2713 17.344 22.1395C18.5979 21.9784 19.6994 21.4745 20.6252 20.5985C21.7912 19.494 22.4153 18.1405 22.4709 16.5409C22.5236 14.9735 22.0197 13.5965 20.968 12.4276C19.969 11.3172 18.7151 10.6844 17.2356 10.5262C15.9494 10.3885 14.7453 10.6669 13.632 11.3348C12.6799 11.909 11.9504 12.6913 11.4436 13.6786C10.884 14.7655 10.6936 15.9198 10.8547 17.1297C10.9748 18.0438 11.3029 18.8846 11.8303 19.6405C11.8889 19.7255 11.9065 19.7958 11.8713 19.8954C11.7629 20.1942 11.6662 20.496 11.5637 20.7948C11.4406 21.1639 11.3205 21.5331 11.1858 21.9344Z" fill="white"/>
<path d="M13.1309 14.7037C13.1456 14.0064 13.3917 13.4878 13.8575 13.0748C14.0069 12.94 14.1915 12.8814 14.3995 12.9107C14.4874 12.9224 14.5753 12.9312 14.6632 12.9253C14.8272 12.9166 14.9386 12.9957 14.9942 13.1392C15.1905 13.649 15.3809 14.1587 15.5714 14.6714C15.6358 14.8472 15.5245 14.9849 15.4307 15.1109C15.3224 15.2603 15.1905 15.3921 15.0616 15.524C14.9298 15.6587 14.9122 15.7349 15.003 15.899C15.5333 16.8628 16.2774 17.6041 17.2882 18.0611C17.3233 18.0757 17.3585 18.0962 17.3936 18.1138C17.5284 18.1753 17.6485 18.1607 17.7511 18.0435C17.9386 17.8238 18.1436 17.6216 18.3165 17.3902C18.4307 17.2378 18.5099 17.2115 18.6827 17.2877C19.1983 17.5103 19.6817 17.7916 20.1739 18.064C20.2647 18.1138 20.297 18.19 20.294 18.2955C20.2677 19.1597 19.7725 19.6109 18.9024 19.8101C18.4806 19.9068 18.0909 19.8013 17.7042 19.6607C16.8927 19.3677 16.1104 19.022 15.4542 18.4419C14.9327 17.9791 14.4727 17.4634 14.0831 16.8863C13.7843 16.441 13.4737 16.0044 13.3009 15.4859C13.2013 15.2105 13.128 14.9293 13.1309 14.7037Z" fill="white"/>
</g>
<defs>
<clipPath id="clip0_2_3056">
<rect width="15" height="15" fill="white" transform="translate(9 9)"/>
</clipPath>
</defs>
</svg>
